# https://github.com/mikedh/trimesh
v 0.00152611 0.12762123 0.29661900
v 0.00618045 0.13041094 0.29033837
v -0.00106129 0.14793107 0.25824234
v 0.00238983 0.11443117 0.31373751
v 0.00238983 0.11274266 0.31261539
v 0.00832403 0.11394716 0.31287527
v 0.00238983 0.11174323 0.31149524
v 0.01105927 0.11005445 0.30852036
v 0.01540648 0.10791541 0.30418457
v 0.02288754 0.10077459 0.29499657
v 0.02848413 0.08621459 0.28160266
v 0.02813104 0.08404762 0.27865106
v 0.02010323 0.10288369 0.29994568
v 0.02758335 0.08433211 0.28091884
v 0.02725155 0.07789984 0.26513451
v 0.03116154 0.07812740 0.26189712
v 0.03216482 0.08137417 0.25401379
v 0.03891858 0.09082345 0.23784986
v 0.03784417 0.08928413 0.24267393
v 0.03771282 0.08917180 0.26071894
v 0.03424466 0.07964203 0.26196814
v 0.03093579 0.07930437 0.27017995
v 0.03011455 0.08797040 0.28204600
v 0.02833475 0.09292022 0.28728910
v 0.02543889 0.10294202 0.29655147
v 0.02641530 0.11513702 0.28940898
v 0.01702053 0.12279514 0.29417108
v 0.03254490 0.11149215 0.27774903
v 0.03557714 0.11981131 0.26267106
v 0.02103794 0.14188290 0.25735289
v 0.01734615 0.11093795 0.30777716
v 0.01376712 0.14035219 0.26665354
v 0.01258554 0.11341654 0.31085091
v 0.03637783 0.09761427 0.26613423
v 0.04032657 0.10844802 0.25470007
v 0.04141052 0.11406934 0.24252971
v 0.00669423 0.16363366 0.22798786
v -0.00048603 0.16366597 0.22958560
v 0.00108589 0.18071243 0.19931197
v 0.00708440 0.19814759 0.16474674
v 0.00182163 0.19139272 0.18108882
v 0.00234947 0.20493132 0.14693563
v 0.00871024 0.21134200 0.11514034
v 0.00238983 0.21100081 0.12177091
v 0.00813977 0.21521194 0.08883282
v 0.00357073 0.22691820 0.09280707
v 0.00238983 0.21508135 0.09826799
v 0.00238983 0.22657079 0.09432951
v 0.00238983 0.22974792 0.09343958
v 0.00379062 0.24019941 0.09249188
v 0.00332763 0.24176512 0.09306590
v 0.00238983 0.24256974 0.09387214
v 0.00634537 0.21726563 0.08727088
v 0.01733955 0.21008234 0.09473614
v 0.04171080 0.17729315 0.10900578
v 0.04883562 0.16274184 0.09873626
v 0.05385789 0.14780872 0.07958924
v 0.03278169 0.19088510 0.11365349
v 0.02416471 0.19559479 0.13482702
v 0.05243961 0.14290603 0.11523605
v 0.02374920 0.17876217 0.18048986
v 0.03617354 0.16137292 0.18126029
v 0.04342172 0.14696572 0.18104130
v 0.03005947 0.15471993 0.22059056
v 0.03100333 0.13649488 0.25122051
v 0.04049368 0.13420517 0.22346548
v 0.04533500 0.13058068 0.20096277
v 0.01527084 0.16537441 0.21958062
v 0.01428058 0.18674690 0.18087283
v 0.01396919 0.19474345 0.16311558
v 0.01300219 0.20518962 0.13462163
v 0.01240093 0.15483937 0.24024722
v 0.04783340 0.11615825 0.19176481
v 0.04966883 0.12824562 0.17313608
v 0.05533589 0.12864078 0.10506014
v 0.04871170 0.16582170 0.06175642
v 0.01893610 0.21021765 0.06194682
v 0.03201539 0.19700014 0.06754902
v 0.05639036 0.12987950 0.05666110
v 0.00750217 0.21610702 0.05927202
v 0.00452018 0.22302990 0.06198553
v 0.00516230 0.23153001 0.08358300
v 0.00238983 0.23770717 0.08765251
v 0.00238983 0.24187306 0.09203567
v 0.00398379 0.23801231 0.08850729
v 0.00238983 0.24253437 0.09286395
v 0.00368730 0.23704117 0.08605768
v 0.00351715 0.24599011 0.08178785
v 0.00238983 0.23791233 0.08664513
v 0.00328834 0.25803170 0.07482825
v 0.00238983 0.25562140 0.07679196
v 0.00238983 0.27356921 0.06611855
v 0.00347877 0.27484814 0.06469377
v 0.00462673 0.25385327 0.05157709
v 0.00282574 0.26149366 0.04689335
v 0.00238983 0.27869800 0.05835934
v 0.00319265 0.27591987 0.05885045
v 0.00238983 0.26198158 0.04790922
v 0.00238983 0.26280254 0.04444559
v 0.00283429 0.26856308 0.03865287
v 0.00245625 0.26998306 0.03702760
v 0.00238983 0.26996668 0.03739248
v 0.00238983 0.27026460 0.03674356
v 0.00290610 0.26604611 0.03887276
v 0.00290815 0.25848345 0.04196791
v 0.00238983 0.25938109 0.04170413
v 0.00238983 0.25092841 0.03905172
v 0.00357351 0.24651330 0.03884375
v 0.00352434 0.24228091 0.03150434
v 0.00515334 0.23338545 0.06300251
v 0.00510997 0.21822711 0.04255416
v 0.00872143 0.21527179 0.04581218
v 0.01681354 0.21050494 0.02989333
v 0.01599906 0.20890132 0.01623547
v 0.03189717 0.19365378 0.02375029
v 0.04157937 0.18143069 0.04287642
v 0.04781925 0.16550834 0.03430290
v 0.05263734 0.14905857 0.02977862
v 0.04493749 0.16401940 0.00443679
v 0.05554791 0.13216300 0.03066773
v 0.05323776 0.13228980 0.00754657
v 0.05564852 0.11755650 0.02429583
v 0.05414515 0.10432608 0.02436646
v 0.04921043 0.08696099 0.02013702
v 0.05027435 0.10331155 -0.00817759
v 0.04016914 0.06943470 0.01992860
v 0.02423198 0.05403816 0.00148065
v 0.03385052 0.17265963 -0.03903741
v 0.02411771 0.19220079 -0.02372868
v 0.01692067 0.18538461 -0.08251886
v 0.02182130 0.17343713 -0.08678572
v 0.03821333 0.15934215 -0.04912248
v 0.04223912 0.14565975 -0.05308219
v 0.04480556 0.13124518 -0.05386764
v 0.01124498 0.20647867 -0.02665678
v 0.01493229 0.19586301 -0.06205629
v 0.00552455 0.21093090 -0.01027886
v 0.00457520 0.21079979 -0.02613032
v 0.00999038 0.20958409 -0.03672489
v 0.04743487 0.11699689 -0.03986157
v 0.04404903 0.10256931 -0.04625380
v 0.03954255 0.08705087 -0.04218744
v 0.01460076 0.05617159 -0.04794916
v 0.00643800 0.04994585 -0.06042022
v 0.00735260 0.05198029 -0.05375375
v 0.00993805 0.05675818 -0.08068701
v 0.02323876 0.07183733 -0.07312987
v 0.01046990 0.06145622 -0.11407812
v 0.02984028 0.08798037 -0.08667505
v 0.03484921 0.10317403 -0.09410665
v 0.03745070 0.11600831 -0.09473569
v 0.00384852 0.22799184 -0.05498353
v 0.00238983 0.21177319 -0.02740320
v 0.00238983 0.21885614 -0.01591195
v 0.00238983 0.21784574 -0.01124921
v 0.00387519 0.21735829 -0.01502181
v 0.00238983 0.22281709 0.00227111
v 0.00352780 0.22126668 0.00221808
v 0.00238983 0.22839586 0.00283355
v 0.00337623 0.22835405 0.00282682
v 0.00238983 0.22642271 0.00971445
v 0.00238983 0.23004544 0.01814912
v 0.00322688 0.22621655 0.01195258
v 0.00238983 0.23979768 0.02596880
v 0.00390719 0.23701624 0.02694054
v 0.00341178 0.24693982 0.02450884
v 0.00238983 0.24724843 0.02456758
v 0.00238983 0.24350328 0.03099402
v 0.00447258 0.22341326 0.01072816
v 0.00596214 0.21371982 0.01255673
v 0.02337503 0.20042263 0.00723184
v 0.03789270 0.17807785 0.00117599
v 0.04854790 0.14810470 -0.00565919
v 0.00510766 0.21503217 0.02353576
v 0.00439136 0.22582263 0.03241771
v 0.00283479 0.28652504 0.05708401
v 0.00238983 0.28610098 0.05793368
v 0.00238983 0.28635970 0.05667343
v 0.00296499 0.28427088 0.05663560
v 0.00238983 0.28536567 0.05599817
v 0.00286919 0.28242776 0.06013294
v 0.00238983 0.28243345 0.06045255
v 0.01810318 0.10403381 0.30878851
v 0.01190949 0.10945579 0.31451525
v 0.00606148 0.11140548 0.31678707
v 0.00238983 0.11126992 0.31773832
v 0.00238983 0.09543356 0.31203243
v 0.00238983 0.07987948 0.29481578
v 0.01122708 0.09228925 0.30873027
v 0.00238983 0.06676218 0.26278423
v 0.01634420 0.07071492 0.26780739
v 0.02777085 0.06945014 0.22653925
v 0.03188667 0.07210788 0.21394483
v 0.04635157 0.09123722 0.15983746
v 0.05470788 0.09181813 0.12687689
v 0.03382885 0.06795401 0.14862908
v 0.04471793 0.08122534 0.12270297
v 0.04975681 0.09085171 0.11762965
v 0.05364407 0.10369728 0.12062194
v 0.04958248 0.08584667 0.05135627
v 0.05236780 0.09246560 0.06206582
v 0.04115138 0.07098244 0.07930020
v 0.04077602 0.06926359 0.05178389
v 0.02826305 0.05476448 0.03386812
v 0.01868871 0.04828322 0.09092090
v 0.01045490 0.04408314 0.05305956
v 0.01135982 0.04284682 0.03258388
v 0.00202379 0.04081226 0.07406835
v -0.00255882 0.04053232 0.05824951
v 0.00102936 0.04165366 0.01886976
v 0.00039810 0.02904688 0.06900070
v 0.00184882 0.02375308 0.07460950
v 0.00324003 0.01880103 0.09701066
v 0.00247943 0.00570303 0.07775118
v 0.00537899 0.04149913 0.11906999
v 0.03084695 0.05671877 0.07156439
v 0.03830097 0.07615617 0.15876798
v 0.01973515 0.05558046 0.16318553
v 0.01721298 0.05267945 0.14167641
v 0.03901425 0.07708448 0.17420298
v 0.02524886 0.06081621 0.18124064
v 0.01851759 0.05940099 0.20407685
v 0.00238983 0.05180650 0.17723751
v 0.01734418 0.06251986 0.23271257
v 0.00219160 0.05791038 0.21991544
v 0.00243259 0.05977769 0.23483594
v 0.00238983 0.04861932 0.14739326
v 0.00238983 0.04103364 0.12046394
v 0.00222816 0.02126742 0.10121073
v 0.00300085 0.02580189 0.10537508
v 0.00162327 0.00820722 0.08274700
v 0.00210567 0.00073521 0.06901798
v 0.00267368 0.00077120 0.06926031
v 0.00272564 -0.00069663 0.06231129
v 0.00263649 -0.00087278 0.06243127
v 0.00216869 0.00017949 0.05916771
v 0.00234478 0.00009065 0.05926571
v 0.00154949 0.00229903 0.05699569
v 0.00135967 0.00235519 0.05692702
v -0.00045498 0.01388873 0.05371146
v -0.00049492 0.01564340 0.05386812
v -0.00035527 0.01523833 0.05361760
v -0.00186916 0.02401392 0.05420465
v -0.00233322 0.03076985 0.05510859
v -0.00254612 0.03198098 0.05515385
v -0.00270168 0.04053283 0.05827697
v 0.04284091 0.09954389 0.22081263
v 0.04405018 0.09696580 0.19721244
v 0.04734642 0.10319613 0.17799126
v 0.05108127 0.10819579 0.16085583
v 0.05562084 0.11385670 0.12543836
v 0.05509914 0.11517300 0.10729202
v 0.05584400 0.11520158 0.08283111
v 0.05650204 0.11655404 0.05278705
v 0.03466087 0.08026303 0.23031758
v 0.02413387 0.07380243 0.25956252
v 0.02721767 0.07936796 0.26965725
v 0.02320019 0.07699401 0.27338105
v 0.01835572 0.07938928 0.28951835
v 0.02653208 0.09369942 0.29675205
v 0.01810593 0.09622770 0.30576426
v 0.01500103 0.10159259 0.31067559
v 0.01143355 0.04530123 0.00770108
v 0.00238983 0.04383922 -0.00358855
v 0.03488167 0.06978792 -0.01407040
v 0.00238983 0.04997317 -0.05270850
v 0.00238983 0.03908288 -0.07148878
v 0.00500795 0.03914500 -0.07215631
v 0.00412690 0.02404256 -0.09687169
v 0.00526314 0.02195896 -0.10683694
v 0.00381426 0.00684437 -0.12955223
v 0.00667340 0.01332296 -0.12452594
v 0.00563648 0.00746118 -0.15109037
v 0.00753631 0.01248351 -0.14330500
v 0.00637730 0.02116092 -0.17438915
v 0.00844126 0.02178077 -0.16461246
v 0.00548762 0.03758746 -0.18560856
v 0.00692098 0.06120446 -0.18625398
v 0.00265640 0.07104288 -0.19521308
v 0.00540772 0.08107761 -0.18512432
v 0.00544921 0.08524618 -0.17557372
v 0.00472696 0.08906729 -0.16977833
v 0.00954937 0.09206650 -0.16994560
v 0.01817673 0.10896156 -0.17503613
v 0.01469749 0.10065127 -0.17746941
v 0.00936772 0.07809222 -0.15181350
v 0.01489633 0.09119280 -0.15226391
v 0.01925030 0.09304563 -0.14006056
v 0.02219406 0.08835868 -0.11921523
v 0.03096946 0.13162586 -0.12489447
v 0.01051386 0.20126901 -0.07868431
v 0.00957569 0.21284308 -0.09516898
v 0.02402200 0.16354114 -0.09909013
v 0.02790745 0.15016945 -0.11012174
v 0.03204333 0.13916622 -0.11123837
v 0.03218716 0.11423042 -0.11913321
v 0.02031864 0.14907260 -0.13969485
v 0.02643383 0.13351794 -0.14322895
v 0.02619991 0.11691052 -0.14794390
v 0.02680285 0.10827735 -0.13596682
v 0.01000559 0.17368460 -0.13276751
v 0.00919369 0.18161686 -0.12234759
v 0.00733385 0.20087923 -0.13466600
v 0.01025863 0.19795268 -0.14261186
v 0.00350998 0.21974083 -0.15637102
v 0.00449787 0.20833309 -0.16300194
v 0.00579773 0.19115752 -0.14751311
v 0.00868252 0.18593210 -0.14989406
v 0.00407490 0.20058377 -0.16517602
v 0.00421461 0.18913368 -0.16882956
v 0.00503931 0.17465238 -0.16558149
v 0.00238983 0.16640733 -0.15481588
v 0.00676218 0.16587510 -0.15228982
v 0.00928040 0.16823050 -0.14373611
v 0.00689873 0.17691748 -0.14753583
v 0.00486187 0.15877607 -0.16948001
v 0.00238983 0.16052799 -0.17029213
v 0.00860684 0.15360120 -0.17729010
v 0.01717052 0.11969671 -0.18478976
v 0.02021462 0.13356799 -0.16547796
v 0.01386081 0.14504969 -0.17059246
v 0.01575066 0.13453978 -0.18188106
v 0.00479405 0.16165885 -0.19925100
v 0.00238983 0.16465160 -0.20124258
v 0.00238983 0.16120291 -0.18909407
v 0.00827852 0.15752235 -0.20436242
v 0.00334145 0.18467484 -0.24063896
v 0.00238983 0.17480062 -0.22344542
v 0.00740050 0.17405793 -0.24740495
v 0.00238983 0.19638455 -0.26091591
v 0.00311206 0.20556380 -0.28003887
v 0.00395780 0.20197103 -0.29494945
v 0.00238983 0.20619178 -0.28017282
v 0.00295620 0.20507345 -0.29330394
v 0.00238983 0.20577610 -0.29332736
v 0.01010391 0.15772004 -0.24606015
v 0.01065092 0.12834910 -0.23598633
v 0.01071509 0.14405519 -0.21299657
v 0.01272995 0.12017737 -0.21006525
v 0.01120785 0.14544774 -0.19837154
v 0.00970776 0.16624713 -0.26679522
v 0.00769399 0.14401862 -0.27802727
v 0.00895618 0.12350604 -0.25893621
v 0.00508461 0.14804582 -0.30031416
v 0.00401869 0.18068129 -0.30601700
v 0.00457699 0.14254634 -0.31860225
v 0.00415861 0.11149300 -0.32267451
v 0.00238983 0.18164246 -0.30828422
v 0.00238983 0.14923398 -0.32000405
v 0.00238983 0.11185265 -0.32537290
v 0.00606698 0.07256830 -0.30984371
v 0.00238983 0.07777371 -0.31599504
v 0.00238983 0.06795378 -0.31046554
v 0.00727086 0.06554922 -0.28782599
v 0.00238983 0.06045703 -0.30376425
v 0.01003864 0.10593254 -0.26738396
v 0.00942480 0.09115462 -0.27565901
v 0.00764520 0.07019194 -0.26567836
v 0.00238983 0.06170765 -0.27613728
v 0.01028584 0.09559878 -0.24567945
v 0.01024427 0.11770693 -0.23610479
v 0.00814608 0.08108048 -0.23845307
v 0.00238983 0.06859410 -0.25597599
v 0.01248377 0.10771930 -0.21133731
v 0.01111498 0.09673048 -0.22053534
v 0.01233212 0.09953815 -0.19884221
v 0.01001694 0.09316781 -0.21582543
v 0.00238983 0.08858940 -0.20434214
v 0.00238983 0.08079789 -0.22849584
v 0.00729827 0.09038424 -0.21010062
v 0.00790553 0.09274203 -0.18799531
v 0.00238983 0.09069911 -0.18979953
v 0.00238983 0.08914283 -0.17131351
v 0.00238983 0.08144966 -0.18847987
v 0.00238983 0.07337078 -0.19406252
v 0.00238983 0.04364333 -0.18920009
v 0.00238983 0.03442847 -0.18509896
v 0.00238983 0.02739283 -0.18059310
v 0.00238983 0.01736828 -0.17194006
v 0.00238983 0.00830076 -0.15405300
v 0.00238983 0.00691762 -0.13863206
v 0.00238983 0.00929260 -0.12379855
v 0.00238983 0.01866599 -0.10970011
v 0.00238983 0.02488145 -0.09331167
v 0.00179490 0.00196098 0.07089511
v 0.00207761 -0.00023725 0.05912017
v 0.00061688 0.00560786 0.06914438
v -0.00081656 0.02467731 0.07743720
v -0.00146866 0.03467168 0.08633411
v -0.00128106 0.04016134 0.06938401
v -0.00084160 0.04192767 0.09127185
v -0.01597891 0.04780307 0.08924420
v -0.02831757 0.05634646 0.06104459
v -0.04367757 0.07844635 0.07088161
v -0.05154453 0.10026352 0.06064109
v -0.04657638 0.08459331 0.03779229
v -0.05164862 0.10158190 0.03498880
v -0.03821638 0.06912493 0.03985692
v -0.01531464 0.04585696 0.05428585
v -0.01182396 0.04430012 0.03376206
v -0.00292755 0.04053286 0.05827856
v -0.00287239 0.04052678 0.05729657
v -0.00028366 0.04069003 0.03055336
v -0.05319504 0.11482090 0.08325753
v -0.05279538 0.13609733 0.09845267
v -0.05118694 0.14849554 0.06093614
v -0.04630537 0.16578278 0.08052997
v -0.03914218 0.18063307 0.08993536
v -0.02502436 0.19941478 0.10398561
v -0.03437294 0.18043606 0.12969241
v -0.02541951 0.18694213 0.14949788
v -0.03846718 0.16992305 0.13741116
v -0.04525917 0.16025104 0.11576241
v -0.04858438 0.13783735 0.13802305
v -0.04112010 0.16007169 0.14820388
v -0.04811844 0.13766187 0.14767782
v -0.04713146 0.13254821 0.16531348
v -0.01995820 0.17718391 0.18072075
v -0.03072838 0.15108695 0.21697029
v -0.03585981 0.14134231 0.21729798
v -0.04312001 0.13902221 0.18482950
v -0.03875596 0.12081737 0.22073229
v -0.03675972 0.10424966 0.24067444
v -0.01089470 0.18892769 0.17884904
v -0.00895116 0.20675034 0.13207739
v -0.00817341 0.21073794 0.11289733
v -0.00350240 0.21505678 0.08975183
v -0.01938013 0.20749954 0.07944333
v -0.03403064 0.19143609 0.06597534
v -0.04824918 0.15951749 0.04581901
v -0.05428321 0.12403497 0.04319494
v -0.00866016 0.21332996 0.07015986
v -0.00642540 0.21438968 0.07892704
v -0.00156171 0.21637035 0.08809633
v 0.00108521 0.22535959 0.09353224
v 0.00238983 0.22815935 0.09388454
v -0.00380801 0.19793937 0.16664119
v -0.00640648 0.16137546 0.23193749
v -0.00101486 0.15778504 0.23929809
v -0.01544949 0.15830674 0.23077635
v -0.02161107 0.14354169 0.25400849
v -0.02935984 0.12910538 0.26360659
v -0.02135465 0.12368237 0.28333559
v -0.03126749 0.11564453 0.27013037
v -0.03484375 0.12493471 0.25017831
v -0.01695012 0.10845879 0.30386581
v -0.02047885 0.10310973 0.29674435
v -0.01308315 0.13504252 0.27598360
v -0.00816978 0.11294969 0.31057182
v -0.02483828 0.09025111 0.28420375
v -0.02598928 0.07982202 0.27204830
v -0.02946500 0.07964203 0.26196814
v -0.03146676 0.09875544 0.26725095
v -0.03265792 0.08502289 0.25534109
v -0.03353992 0.09003066 0.23951992
v -0.03702553 0.11406934 0.24252971
v -0.03161751 0.08588748 0.24904600
v -0.02748803 0.08176431 0.25341755
v -0.02347836 0.07795714 0.26299221
v -0.02469746 0.07790027 0.26624247
v -0.02403937 0.08021486 0.27167835
v -0.02306032 0.08645485 0.28163050
v -0.02030562 0.09729434 0.29185451
v -0.01240420 0.10574364 0.30054174
v -0.00809549 0.10925208 0.30647154
v -0.02175242 0.09369934 0.29675197
v -0.02323342 0.08755143 0.28673995
v -0.01173413 0.10631884 0.31055507
v -0.01023876 0.10817470 0.30818301
v -0.00468526 0.11050168 0.31580777
v -0.00644743 0.09228925 0.30873027
v -0.01357597 0.07938929 0.28951843
v -0.01156456 0.07071491 0.26780734
v -0.01700381 0.06549631 0.23801495
v 0.00238983 0.06602256 0.25981566
v -0.01126289 0.06111453 0.23409985
v -0.02800284 0.07644105 0.22612676
v -0.02787554 0.07155009 0.20616958
v -0.03752021 0.08873543 0.19088788
v -0.04491192 0.10138730 0.16036859
v -0.04159671 0.08665609 0.16103180
v -0.05026945 0.10073884 0.12601179
v -0.04930413 0.09091237 0.12525444
v -0.04634357 0.08921801 0.10591923
v -0.04213545 0.08111872 0.12200859
v -0.03052720 0.06735895 0.14884790
v -0.02028616 0.05889040 0.16801574
v -0.01583267 0.05036865 0.11810502
v -0.01248375 0.05269642 0.14895665
v -0.02605100 0.06690507 0.18957620
v -0.01508239 0.06023245 0.20649120
v 0.00199337 0.05657548 0.21238619
v 0.00008220 0.04075942 0.11736052
v 0.00030708 0.02203419 0.10096789
v 0.00238983 0.23627754 -0.06929631
v 0.00374908 0.23949745 -0.07752589
v 0.00774317 0.22801793 -0.08219967
v 0.00238983 0.24211340 -0.08685163
v 0.00840774 0.23006864 -0.10818673
v 0.00512150 0.23207635 -0.09674899
v 0.00393205 0.24467291 -0.10688068
v 0.00402855 0.24172531 -0.12616455
v 0.00238983 0.24520454 -0.10894243
v 0.00661902 0.22737730 -0.13666862
v 0.00394821 0.23297712 -0.14420281
v 0.00956063 0.20458280 -0.11723881
v 0.00238983 0.24146941 -0.12931809
v 0.00238983 0.23571077 -0.14102314
v 0.00966564 0.19078709 -0.10372059
v 0.00848770 0.21490774 -0.13921429
v 0.00238983 0.20950103 -0.16323805
v 0.00238983 0.18450657 -0.16945174
v 0.00238983 0.17449966 -0.16687113
v 0.00238983 0.22527702 -0.15344435
v 0.00685596 0.07446255 -0.16524164
v 0.00906540 0.06301155 -0.16089563
v 0.00847098 0.05012981 -0.14435968
v 0.01010089 0.03830322 -0.11115229
v 0.00238983 0.05940758 -0.29847991
v -0.00426186 0.12772944 0.29718047
v -0.00708931 0.13992589 0.27219138
v -0.00575523 0.11696991 0.30917451
v -0.00365572 0.11327242 0.31245849
v -0.00286449 0.11067187 0.30992806
v -0.03792283 0.10004503 0.21855710
v -0.04779764 0.12043287 0.16554227
v -0.05255293 0.11933139 0.11902759
v -0.05239355 0.11547935 0.12592932
v -0.04756592 0.11785393 0.16502616
v -0.03616569 0.09263205 0.21690439
v -0.03154053 0.08381957 0.23186710
v -0.02255077 0.07662820 0.25888609
v -0.01805389 0.07417725 0.26476076
v -0.02298440 0.08242861 0.27689386
v -0.01332626 0.09622770 0.30576426
v -0.01022137 0.10159259 0.31067559
v 0.00238983 0.23889989 0.09395947
v 0.00100498 0.24109050 0.09260210
v 0.00238983 0.24255206 0.09336805
v 0.00133474 0.24119920 0.09180190
v 0.00238983 0.23963507 0.08984562
v 0.00238983 0.23780975 0.08714882
v 0.00238983 0.24188069 0.08462837
v 0.00116337 0.23722263 0.08630050
v 0.00238983 0.24618395 0.08248699
v 0.00238983 0.26697236 0.07022731
v 0.00157135 0.26958999 0.06826626
v 0.00238983 0.28016606 0.06200978
v 0.00187901 0.28021380 0.06168796
v 0.00038453 0.23489057 0.08899449
v 0.00079300 0.23916860 0.09132814
v -0.00036133 0.23242818 0.08120748
v 0.00025947 0.22302989 0.06198546
v -0.00270347 0.21625091 0.05712425
v 0.00144390 0.24700074 0.08094152
v -0.00066184 0.23534251 0.05794643
v 0.00047175 0.26888304 0.06360191
v 0.00158701 0.27591987 0.05885045
v 0.00181468 0.28427088 0.05663560
v 0.00195394 0.26149366 0.04689334
v 0.00194536 0.26856329 0.03865266
v 0.00232345 0.26998303 0.03702757
v 0.00187356 0.26604615 0.03887274
v 0.00157125 0.25716520 0.04212789
v 0.00238983 0.25448662 0.04079546
v 0.00048670 0.24006243 0.03689451
v -0.00036909 0.22020287 0.04526770
v -0.00013274 0.21728114 0.03952457
v -0.01060990 0.21177391 0.02993538
v -0.02070252 0.20519150 0.03731596
v -0.02966116 0.19339941 0.02619599
v -0.03782326 0.18147805 0.03152430
v -0.04427719 0.16634849 0.02641634
v -0.04922138 0.14986282 0.02291202
v -0.05269916 0.12459468 0.01788124
v -0.05058240 0.10211242 0.01780516
v -0.04526364 0.08519175 0.01453459
v -0.03564397 0.06853402 0.01159480
v -0.02292752 0.05423455 0.01010659
v -0.00790626 0.04485878 0.01125294
v 0.00234238 0.04261729 0.00718617
v -0.04599786 0.13203454 -0.02796682
v -0.04070757 0.15411998 -0.03250934
v -0.03403351 0.16644041 -0.04145607
v -0.01239597 0.20408995 -0.01597924
v -0.01237003 0.19754291 -0.05296337
v -0.02219395 0.18055411 -0.05629707
v -0.04166058 0.13162545 -0.05643722
v -0.00031904 0.21068393 -0.01282904
v -0.00482670 0.21389654 -0.04590374
v -0.00635670 0.20709792 -0.03301628
v -0.03981294 0.11644025 -0.06856594
v -0.03496662 0.08545771 -0.04777252
v -0.02858770 0.08579500 -0.07598084
v -0.02073506 0.06971044 -0.06585124
v -0.01134841 0.05583760 -0.04906625
v -0.03930242 0.10119174 -0.05738744
v -0.01501884 0.05475876 -0.03078348
v -0.00132693 0.04810509 -0.06287902
v -0.00020578 0.03927803 -0.07155503
v 0.00017062 0.02852433 -0.08999129
v 0.00016889 0.01963079 -0.10687441
v -0.00094961 0.01230260 -0.12059363
v 0.00011445 0.00587184 -0.14078287
v -0.00237831 0.01116055 -0.15725135
v -0.00236159 0.02178072 -0.17431868
v -0.00159183 0.01791963 -0.17014314
v -0.00070794 0.03758747 -0.18560858
v -0.00214125 0.06120445 -0.18625404
v 0.00212341 0.07104286 -0.19521313
v -0.00062806 0.08107758 -0.18512435
v -0.00066956 0.08524615 -0.17557374
v -0.00004654 0.08931051 -0.17028712
v -0.00554333 0.09322937 -0.17277789
v -0.01261465 0.09873610 -0.16937078
v -0.01491918 0.10869009 -0.17807409
v -0.00968948 0.09858155 -0.19390776
v -0.00365734 0.08265869 -0.15755405
v -0.01229167 0.09034783 -0.14680807
v -0.01943437 0.09548729 -0.13517525
v -0.00584938 0.06201387 -0.11259091
v -0.00515766 0.05683463 -0.08113961
v -0.00472477 0.07262891 -0.14455707
v -0.03171736 0.09675839 -0.08645083
v -0.03470413 0.14826112 -0.07524079
v -0.02218905 0.17343327 -0.07461461
v -0.00633814 0.19961635 -0.07945902
v 0.00093113 0.22799182 -0.05498350
v 0.00018845 0.21080145 -0.02614147
v 0.00090448 0.21735830 -0.01502181
v 0.00125189 0.22126665 0.00221806
v 0.00140346 0.22835405 0.00282683
v 0.00111510 0.22617564 0.01011330
v 0.00082092 0.23580390 0.02697482
v 0.00136788 0.24693982 0.02450884
v 0.00146805 0.24330950 0.02997152
v -0.00120084 0.21376940 0.01344307
v -0.01431995 0.20635879 0.00145523
v -0.02367321 0.18557511 -0.03603702
v -0.03208883 0.18297835 -0.00360531
v 0.00035606 0.21576510 0.03076184
v 0.00015411 0.22374149 0.02515574
v -0.04360517 0.15448425 -0.01295813
v 0.00238983 0.24737020 0.03730797
v 0.00238983 0.28662831 0.05722241
v 0.00195489 0.28654329 0.05711476
v 0.00238983 0.28572838 0.05606131
v -0.00372730 0.05292071 -0.05359656
v 0.00238983 0.05000203 -0.04131826
v 0.00238983 0.04247743 -0.06667979
v 0.00238983 0.03152644 -0.08510377
v 0.00238983 0.02177372 -0.10150589
v 0.00238983 0.00638309 -0.14789373
v -0.00188552 0.09177415 -0.19602090
v -0.00648172 0.09473401 -0.21882091
v -0.00653931 0.10777816 -0.22471708
v -0.00250537 0.08965530 -0.21253642
v -0.00530640 0.09616705 -0.23299305
v -0.00777638 0.10609067 -0.26448685
v -0.00375873 0.08255239 -0.23635891
v 0.00238983 0.07384448 -0.24490640
v 0.00238983 0.07855438 -0.23466423
v -0.00565584 0.09339228 -0.25590732
v -0.00279489 0.06580081 -0.28026006
v 0.00238983 0.06341077 -0.26835161
v -0.00438866 0.10116795 -0.29998398
v -0.00365573 0.08265592 -0.28304861
v -0.00035421 0.08193158 -0.31469178
v -0.00113899 0.06971156 -0.30709895
v 0.00238983 0.06420540 -0.30711490
v 0.00238983 0.06000453 -0.28392294
v -0.00131730 0.12191724 -0.31888750
v 0.00028694 0.14891344 -0.31700090
v 0.00128101 0.18116562 -0.30660582
v -0.00478595 0.15821810 -0.28357831
v -0.00650188 0.16451332 -0.26621890
v -0.00566685 0.12465232 -0.28423756
v -0.00672817 0.15977913 -0.25134736
v -0.00655495 0.15242133 -0.23270195
v -0.00684557 0.13065964 -0.23827137
v -0.00843574 0.14475156 -0.21081430
v -0.01051134 0.10968793 -0.20940444
v -0.00858555 0.12228763 -0.22473019
v -0.01234066 0.12424331 -0.19596110
v -0.00579915 0.15622074 -0.19305127
v 0.00238983 0.16763156 -0.20851579
v -0.00523702 0.15807959 -0.19822993
v 0.00238983 0.17898972 -0.23110183
v 0.00117284 0.17456391 -0.22550728
v 0.00238983 0.18794759 -0.24427047
v -0.00488529 0.17886827 -0.25667430
v 0.00238983 0.19973621 -0.26742953
v -0.00304713 0.18831862 -0.27725036
v 0.00161845 0.20425347 -0.27769484
v 0.00140538 0.20355714 -0.29450907
v -0.01740435 0.05375441 -0.01571282
v -0.03388083 0.07459847 -0.02597849
v -0.04694057 0.09251871 0.00316486
v -0.04663684 0.11687856 -0.02732311
v -0.00147559 0.01733326 0.05418210
v -0.00124134 0.01935452 0.05368233
v -0.00061279 0.01332722 0.05387651
v -0.00212860 0.02386964 0.05416116
v -0.00263737 0.03206379 0.05536970
v -0.00107868 0.01938262 0.05367886
v -0.00296346 0.22801817 -0.08219983
v 0.00103063 0.23949750 -0.07752596
v -0.00601972 0.19943646 -0.08043303
v -0.02972175 0.14659675 -0.10085687
v -0.03390927 0.12126052 -0.10271477
v -0.01638376 0.17660825 -0.09196281
v -0.00952980 0.17928042 -0.10705040
v -0.00492832 0.19120605 -0.10229674
v -0.00478093 0.20458275 -0.11723903
v -0.01226765 0.17030361 -0.11985940
v -0.02416786 0.15181368 -0.11210574
v -0.02897972 0.13879991 -0.11400682
v -0.01669812 0.15273876 -0.13670152
v -0.02774086 0.13339456 -0.12690462
v -0.02411724 0.11802149 -0.14662431
v -0.02544618 0.10965422 -0.13277276
v -0.00709375 0.15791106 -0.15069848
v -0.00292923 0.16557882 -0.15091385
v -0.00207399 0.17331602 -0.15504419
v -0.00211906 0.17691748 -0.14753583
v 0.00038715 0.15915868 -0.16949486
v -0.00680214 0.15443178 -0.17074511
v 0.00017757 0.17369540 -0.16630282
v -0.01749377 0.13441820 -0.16543277
v -0.01193011 0.14059905 -0.18135644
v -0.01729737 0.12261188 -0.17366259
v -0.00580397 0.17312712 -0.13555712
v -0.00121319 0.18581058 -0.13876148
v 0.00078923 0.19934175 -0.16528879
v -0.00306606 0.18709929 -0.15526949
v 0.00056503 0.18913364 -0.16882956
v -0.00443386 0.18182806 -0.12230228
v -0.00255418 0.20087941 -0.13466620
v -0.00547897 0.19795269 -0.14261186
v 0.00108798 0.21287769 -0.16076666
v 0.00238983 0.19301666 -0.16771995
v 0.00036827 0.22500367 -0.15310341
v -0.00370804 0.21490774 -0.13921429
v -0.00336398 0.23182731 -0.10996509
v 0.00075115 0.24172529 -0.12616461
v 0.00083147 0.23297719 -0.14420274
v -0.00183933 0.22737717 -0.13666872
v 0.00238983 0.24346334 -0.12278787
v 0.00238983 0.23082635 -0.14700405
v 0.00128880 0.24453104 -0.11463217
v 0.00069706 0.24416296 -0.10420214
v -0.00034176 0.23207635 -0.09674899
v -0.00467144 0.21847445 -0.10038180
v -0.00291332 0.21994707 -0.08750290
v -0.00207626 0.07446255 -0.16524164
v -0.00428570 0.06301155 -0.16089563
v -0.00348511 0.05049805 -0.15077080
v -0.00331852 0.03927775 -0.13787517
v -0.00489807 0.03786104 -0.11967217
v -0.00533933 0.04516144 -0.09774272
v 0.05588054 0.10146155 0.13329502
v 0.04933879 0.10282647 0.14261649
v 0.05992009 0.10500526 0.12206994
v 0.05795910 0.11113160 0.12587651
v 0.06241707 0.11449103 0.11378486
v 0.06468198 0.10678289 0.10624220
v 0.06488292 0.11699088 0.10509454
v 0.06853225 0.11362026 0.09183087
v 0.07096592 0.12186624 0.08033049
v 0.07359495 0.11356080 0.07456580
v 0.07148510 0.12189481 0.07529388
v 0.06817600 0.10827103 0.09528846
v 0.07064663 0.11005309 0.08748075
v 0.07092321 0.11031303 0.08582392
v 0.07017510 0.12204269 0.07933122
v 0.06864719 0.12140528 0.08683174
v 0.06871541 0.12107146 0.08840409
v 0.06578278 0.11949687 0.09710274
v 0.06318080 0.11740931 0.10715841
v 0.06127777 0.11580757 0.11295393
v 0.05637661 0.11068673 0.12760732
v 0.05258322 0.10697352 0.13639884
v 0.04836712 0.10378436 0.14201713
v 0.04675178 0.09908387 0.14276411
v 0.04816456 0.09726552 0.14291765
v 0.05715035 0.10022267 0.12867519
v 0.06295490 0.10473721 0.11151856
v 0.04626541 0.09380767 0.14273061
v 0.04560482 0.09168335 0.14226104
v 0.04688560 0.08975990 0.14230409
v 0.05123577 0.08623045 0.13413759
v 0.05303038 0.09182215 0.13432540
v 0.05761658 0.08611374 0.12267251
v 0.05989330 0.09405978 0.11817067
v 0.06256936 0.09111059 0.11059875
v 0.06510003 0.09702991 0.10368160
v 0.07035398 0.10135844 0.08899290
v 0.07089681 0.09708964 0.08395093
v 0.07215908 0.10253141 0.08251797
v 0.07303459 0.10097921 0.07267945
v 0.07227565 0.10199848 0.07212960
v 0.07188954 0.09770119 0.07427987
v 0.07262320 0.09268178 0.07766103
v 0.07050762 0.08201576 0.08674962
v 0.06738588 0.07605859 0.09408381
v 0.06309822 0.07920141 0.10676075
v 0.06163837 0.07248869 0.10662648
v 0.05828592 0.08221969 0.11821723
v 0.05375656 0.07397032 0.12407315
v 0.04900338 0.07924600 0.13616431
v 0.04707040 0.08292791 0.14000814
v 0.04608228 0.08135681 0.13811145
v 0.05134320 0.07487712 0.12590386
v 0.06472179 0.07554981 0.09448185
v 0.05722912 0.07265601 0.11206420
v 0.06099125 0.07309780 0.10349006
v 0.04509647 0.08596864 0.14130898
v 0.04560165 0.08804003 0.13809103
v 0.04666511 0.09169731 0.13892721
v 0.04729748 0.09822137 0.13951954
v 0.04824448 0.10263471 0.13968778
v 0.05290176 0.10685870 0.13157930
v 0.05744411 0.11104438 0.11989245
v 0.06076044 0.11395413 0.10919436
v 0.06547337 0.11689378 0.09347843
v 0.06929386 0.12046194 0.07978623
v 0.07028530 0.11966527 0.07496077
v 0.07234658 0.12108925 0.07164989
v 0.07232132 0.11882218 0.06935547
v 0.07310599 0.11573702 0.06840367
v 0.07340023 0.11510628 0.06836795
v 0.07279816 0.10973102 0.06941790
v 0.07384162 0.10642222 0.07077298
v 0.07273502 0.10398702 0.07132875
v 0.07100852 0.10694950 0.08209362
v 0.06669732 0.10381575 0.09658462
v 0.06030568 0.09801369 0.11694098
v 0.05657123 0.09591864 0.12799132
v 0.05173597 0.09652804 0.13671638
v 0.06914263 0.08243841 0.08522255
v 0.07054108 0.09986995 0.07469194
v 0.07166580 0.10437623 0.07233503
v 0.07139091 0.11036216 0.06997784
v 0.07156784 0.11558269 0.06978767
v 0.07090259 0.11713196 0.07047275
v 0.07045417 0.11843041 0.07241390
v 0.07026115 0.09395672 0.07806378
v 0.06725650 0.08310083 0.08676109
v 0.06396458 0.07695575 0.09493280
v 0.05608463 0.07505216 0.11257890
v 0.05231743 0.07676120 0.12161269
v 0.04913502 0.07867952 0.12897046
v 0.04653580 0.08196598 0.13441354
v 0.05431060 0.10777492 0.12845807
v 0.04596798 0.08488794 0.13686442
v 0.05676437 0.09304827 0.11623567
v 0.05991920 0.11297634 0.11177875
v 0.06010506 0.07507386 0.10376696
v 0.06311274 0.11555386 0.10149450
v 0.06908093 0.08935364 0.08165104
v 0.06632294 0.11761177 0.09057781
v 0.07097077 0.10217240 0.07356267
v 0.06751370 0.11882865 0.08638208
v 0.07152836 0.10736920 0.07115643
v -0.04455912 0.10282647 0.14261649
v -0.04780356 0.10697352 0.13639884
v -0.05110087 0.10146155 0.13329502
v -0.05317943 0.11113160 0.12587651
v -0.05577621 0.10618820 0.12002506
v -0.05784710 0.11472081 0.11312571
v -0.05842005 0.10869076 0.11119627
v -0.05937587 0.11652549 0.10734801
v -0.06347153 0.11973015 0.09264960
v -0.06265061 0.11257400 0.09573883
v -0.06619905 0.12156661 0.08064741
v -0.06620803 0.12195434 0.07954577
v -0.06839367 0.11311763 0.07605637
v -0.06780094 0.12136971 0.07227447
v -0.06905963 0.11543469 0.06847389
v -0.06806828 0.11853098 0.06933796
v -0.06047603 0.10648016 0.10427424
v -0.05723150 0.10395479 0.11441010
v -0.05237068 0.10022267 0.12867519
v -0.04744183 0.09838684 0.13680954
v -0.04287238 0.09591286 0.14294747
v -0.04358745 0.10378436 0.14201713
v -0.04197212 0.09908387 0.14276411
v -0.05066837 0.10981262 0.12968746
v -0.05424931 0.11339214 0.12021855
v -0.05768772 0.11691630 0.10926367
v -0.06100311 0.11949687 0.09710274
v -0.06272419 0.12065500 0.09118363
v -0.06503429 0.12210059 0.08173051
v -0.06632366 0.12173422 0.07511474
v -0.06718475 0.11962346 0.06985110
v -0.06746956 0.11632818 0.06869157
v -0.06845142 0.11129180 0.06928979
v -0.06755447 0.11092426 0.06922980
v -0.06871264 0.10533517 0.07090006
v -0.06749599 0.10199848 0.07212960
v -0.06825493 0.10097921 0.07267945
v -0.06694729 0.09923437 0.07352354
v -0.06729165 0.10253606 0.08303360
v -0.06611714 0.09708964 0.08395093
v -0.06168804 0.09827943 0.10029905
v -0.05949367 0.08826618 0.10537462
v -0.05506465 0.08803242 0.11790048
v -0.05119770 0.08548563 0.12583154
v -0.05247854 0.09440696 0.12503186
v -0.04732100 0.09136501 0.13540926
v -0.04210594 0.08975990 0.14230409
v -0.04082515 0.09168335 0.14226104
v -0.04031681 0.08596864 0.14130898
v -0.06682621 0.08853269 0.08067530
v -0.06821670 0.09392700 0.07699322
v -0.06572796 0.08201577 0.08674961
v -0.06260621 0.07605859 0.09408382
v -0.05803106 0.07291205 0.10450102
v -0.05350342 0.07309468 0.11465965
v -0.04795014 0.07455777 0.12661468
v -0.04975830 0.08112228 0.12513202
v -0.04327777 0.08068554 0.13775738
v -0.04182541 0.08368659 0.14049080
v -0.04130262 0.08135681 0.13811145
v -0.04474823 0.07680437 0.13045810
v -0.06432667 0.08132573 0.08648974
v -0.05994213 0.07554981 0.09448185
v -0.04764850 0.07438062 0.12303369
v -0.05444872 0.07246398 0.10763902
v -0.06636698 0.09071644 0.07875184
v -0.06576141 0.09986995 0.07469194
v -0.06688613 0.10437623 0.07233503
v -0.06661125 0.11036216 0.06997784
v -0.06612293 0.11713196 0.07047275
v -0.06567451 0.11843041 0.07241390
v -0.06451420 0.12046194 0.07978623
v -0.06213865 0.11822021 0.08847995
v -0.05682201 0.11493193 0.10660996
v -0.05513954 0.11297634 0.11177875
v -0.04812210 0.10685870 0.13157930
v -0.04346481 0.10263471 0.13968778
v -0.04251781 0.09822137 0.13951954
v -0.04143681 0.09567574 0.14255086
v -0.04687233 0.09446901 0.13643824
v -0.05185107 0.09546472 0.12761454
v -0.05750774 0.10009054 0.11086040
v -0.06191770 0.10381578 0.09658450
v -0.06622885 0.10694950 0.08209360
v -0.06554080 0.10976728 0.08852734
v -0.06709316 0.11094578 0.08279121
v -0.04082199 0.08804003 0.13809103
v -0.04188545 0.09169731 0.13892721
v -0.04175613 0.08196598 0.13441354
v -0.05130497 0.07505216 0.11257890
v -0.05918491 0.07695575 0.09493280
v -0.06247684 0.08310083 0.08676109
v -0.06430126 0.08935364 0.08165104
v -0.06548149 0.09395672 0.07806378
v -0.04953094 0.10777492 0.12845807
v -0.04118831 0.08488794 0.13686442
v -0.04435535 0.07867952 0.12897046
v -0.04942137 0.07590668 0.11709579
v -0.05266445 0.11104438 0.11989245
v -0.05800346 0.09594384 0.10077138
v -0.06154327 0.11761177 0.09057781
v -0.06619110 0.10217240 0.07356267
v -0.06273403 0.11882865 0.08638208
v -0.06550564 0.11966527 0.07496077
v -0.06678817 0.11558269 0.06978767
f 1 2 3
f 2 1 6
f 4 6 1
f 4 5 6
f 5 7 6
f 7 8 6
f 9 13 10
f 13 260 10
f 10 260 11
f 14 12 11
f 22 12 257
f 17 16 15
f 19 17 18
f 20 21 19
f 17 19 21
f 17 21 16
f 16 21 15
f 21 22 15
f 22 21 23
f 26 32 27
f 25 28 26
f 28 25 24
f 28 29 26
f 30 32 26
f 26 65 30
f 65 26 29
f 27 31 26
f 25 26 31
f 27 33 31
f 34 28 24
f 24 23 34
f 34 23 21
f 21 20 34
f 19 34 20
f 35 34 19
f 28 34 35
f 35 29 28
f 18 35 19
f 36 29 35
f 6 8 33
f 31 33 8
f 8 9 31
f 25 31 9
f 9 10 25
f 25 10 24
f 11 24 10
f 24 11 23
f 12 23 11
f 23 12 22
f 257 15 22
f 38 37 39
f 39 37 41
f 40 41 37
f 41 40 42
f 42 40 44
f 43 44 40
f 44 43 47
f 47 43 53
f 45 53 43
f 47 53 46
f 46 48 47
f 46 49 48
f 46 52 49
f 52 46 50
f 52 50 51
f 54 59 58
f 60 57 56
f 59 61 58
f 58 61 62
f 55 58 62
f 55 62 63
f 63 56 55
f 56 63 74
f 74 60 56
f 62 61 64
f 64 65 66
f 64 66 63
f 64 63 62
f 67 63 66
f 73 67 66
f 66 247 73
f 67 74 63
f 69 68 64
f 64 61 69
f 70 69 61
f 61 71 70
f 59 71 61
f 54 71 59
f 37 68 69
f 72 68 37
f 69 70 40
f 69 40 37
f 43 40 71
f 70 71 40
f 71 54 43
f 72 37 2
f 3 2 37
f 37 38 3
f 27 32 2
f 33 27 2
f 2 6 33
f 72 2 32
f 72 32 30
f 30 64 72
f 68 72 64
f 64 30 65
f 66 65 29
f 66 29 36
f 66 36 247
f 247 36 35
f 67 73 74
f 75 60 74
f 57 60 75
f 75 79 57
f 76 56 57
f 56 76 116
f 116 55 56
f 55 116 78
f 78 58 55
f 78 77 58
f 77 54 58
f 45 54 77
f 45 77 80
f 45 80 81
f 81 53 45
f 81 82 53
f 82 46 53
f 85 46 82
f 85 83 84
f 85 84 86
f 51 85 86
f 89 83 85
f 85 87 89
f 82 87 85
f 89 87 88
f 89 88 90
f 90 91 89
f 90 92 91
f 92 90 93
f 85 51 50
f 50 46 85
f 93 94 95
f 95 97 93
f 98 97 95
f 97 98 96
f 97 96 179
f 98 95 99
f 100 99 95
f 100 102 99
f 102 100 101
f 103 102 101
f 101 104 103
f 101 100 104
f 104 100 95
f 103 104 106
f 106 104 105
f 105 104 95
f 106 105 107
f 105 108 107
f 95 94 105
f 108 105 94
f 107 108 109
f 94 93 110
f 81 110 82
f 81 108 94
f 94 110 81
f 87 82 110
f 88 87 110
f 110 90 88
f 90 110 93
f 112 113 111
f 117 119 116
f 119 117 118
f 120 121 118
f 121 120 122
f 125 123 124
f 123 125 122
f 140 122 125
f 129 131 130
f 131 129 128
f 136 135 129
f 129 130 136
f 135 138 137
f 139 138 135
f 150 141 142
f 141 150 140
f 143 144 147
f 143 145 144
f 146 147 144
f 148 147 146
f 148 289 147
f 148 286 289
f 147 149 142
f 149 147 289
f 289 150 149
f 149 150 142
f 151 140 150
f 140 151 134
f 139 135 136
f 497 152 139
f 139 152 138
f 153 138 152
f 138 153 156
f 154 156 153
f 156 154 155
f 156 155 158
f 158 155 157
f 157 160 158
f 160 157 159
f 163 160 159
f 158 160 163
f 159 161 163
f 162 163 161
f 163 162 165
f 164 165 162
f 165 164 166
f 167 166 164
f 166 167 109
f 166 109 165
f 168 109 167
f 158 169 170
f 156 158 170
f 170 137 156
f 138 156 137
f 114 135 137
f 114 171 135
f 129 135 171
f 129 171 115
f 129 115 172
f 172 128 129
f 128 172 119
f 119 132 128
f 132 119 173
f 173 133 132
f 133 173 121
f 121 134 133
f 134 121 140
f 113 171 114
f 137 113 114
f 137 170 113
f 174 113 170
f 170 169 174
f 118 173 119
f 173 118 121
f 122 140 121
f 175 111 174
f 174 111 113
f 163 174 169
f 174 163 165
f 165 175 174
f 175 165 109
f 109 111 175
f 111 109 108
f 108 81 111
f 172 116 119
f 116 172 115
f 171 113 115
f 109 168 107
f 178 177 176
f 179 178 176
f 178 179 180
f 180 179 96
f 179 176 181
f 182 176 177
f 182 181 176
f 93 181 182
f 181 93 179
f 182 92 93
f 93 97 179
f 260 13 9
f 9 183 260
f 9 184 183
f 189 185 186
f 184 185 189
f 186 187 189
f 189 187 188
f 188 259 189
f 259 188 190
f 190 191 259
f 224 191 190
f 196 195 194
f 196 197 195
f 198 199 195
f 195 197 198
f 198 201 199
f 202 201 198
f 203 200 201
f 201 202 203
f 203 202 216
f 216 204 203
f 204 126 203
f 200 203 126
f 206 216 205
f 207 204 216
f 216 206 207
f 205 208 209
f 205 209 206
f 210 207 206
f 210 206 246
f 209 246 206
f 212 211 208
f 212 213 214
f 213 212 208
f 208 230 213
f 208 215 230
f 215 208 205
f 198 197 202
f 216 202 197
f 216 197 196
f 205 216 196
f 194 217 196
f 217 218 196
f 219 196 218
f 196 219 205
f 215 205 219
f 217 194 220
f 217 220 218
f 218 220 221
f 223 218 221
f 221 222 223
f 220 193 221
f 221 193 222
f 222 225 223
f 193 192 222
f 222 192 224
f 222 224 225
f 224 226 225
f 224 190 226
f 227 218 223
f 227 219 218
f 219 227 215
f 228 215 227
f 228 230 215
f 230 228 229
f 229 213 230
f 213 229 231
f 231 214 213
f 232 214 231
f 233 214 232
f 233 234 214
f 235 234 233
f 233 232 235
f 236 234 235
f 236 237 234
f 234 237 214
f 238 237 236
f 237 238 214
f 236 239 238
f 240 238 239
f 238 240 242
f 214 238 242
f 241 242 240
f 243 242 241
f 243 244 242
f 243 245 244
f 209 244 245
f 245 246 209
f 244 208 211
f 208 244 209
f 211 242 244
f 242 211 212
f 242 212 214
f 45 43 54
f 247 35 18
f 248 73 247
f 73 248 249
f 73 249 250
f 250 74 73
f 74 250 195
f 74 195 251
f 251 75 74
f 252 75 251
f 252 253 75
f 253 79 75
f 253 254 79
f 250 249 194
f 249 248 194
f 194 248 220
f 248 247 220
f 220 247 193
f 247 255 193
f 18 255 247
f 255 18 17
f 17 15 256
f 15 257 256
f 257 12 258
f 259 258 12
f 12 14 259
f 11 259 14
f 260 259 11
f 262 261 260
f 183 262 260
f 262 183 184
f 261 262 189
f 260 261 189
f 260 189 259
f 189 262 184
f 191 258 259
f 257 258 191
f 256 257 191
f 224 256 191
f 17 256 224
f 192 17 224
f 255 17 192
f 193 255 192
f 127 263 143
f 127 143 147
f 147 265 127
f 147 142 265
f 141 125 142
f 125 141 140
f 143 263 264
f 124 142 125
f 142 124 126
f 126 265 142
f 265 126 127
f 263 210 264
f 264 266 143
f 143 266 145
f 266 144 145
f 144 266 267
f 267 268 144
f 268 269 270
f 272 270 269
f 269 271 272
f 274 272 271
f 271 273 274
f 276 274 273
f 273 275 276
f 277 276 275
f 278 277 279
f 279 280 278
f 283 371 285
f 282 283 287
f 287 286 282
f 282 286 281
f 287 285 284
f 283 285 287
f 287 288 289
f 290 134 151
f 134 290 295
f 295 133 134
f 133 295 294
f 294 132 133
f 132 294 293
f 293 128 132
f 128 293 131
f 291 136 130
f 139 291 497
f 139 136 291
f 151 296 290
f 296 151 150
f 131 301 130
f 301 131 293
f 293 294 301
f 295 290 294
f 296 300 290
f 289 300 150
f 150 300 296
f 288 300 289
f 297 294 290
f 290 298 297
f 290 300 299
f 299 298 290
f 288 287 300
f 294 297 301
f 302 301 307
f 308 307 301
f 304 303 302
f 302 307 304
f 305 303 304
f 304 306 305
f 310 307 308
f 309 307 310
f 304 307 309
f 309 306 304
f 310 308 311
f 311 313 312
f 313 315 314
f 315 313 311
f 311 308 315
f 316 312 313
f 316 317 312
f 318 316 313
f 313 314 321
f 318 313 321
f 320 322 321
f 322 320 319
f 328 324 323
f 324 325 323
f 326 323 318
f 323 327 328
f 323 326 329
f 329 327 323
f 330 328 327
f 327 331 330
f 329 331 327
f 329 332 331
f 333 330 331
f 334 333 331
f 334 335 333
f 334 331 332
f 334 332 335
f 343 336 337
f 337 336 338
f 338 361 337
f 338 339 361
f 338 340 319
f 319 339 338
f 342 341 336
f 342 345 341
f 343 342 336
f 345 342 344
f 344 346 345
f 342 346 344
f 348 345 346
f 346 349 348
f 349 346 347
f 347 350 349
f 341 345 332
f 332 329 341
f 329 336 341
f 335 345 348
f 335 332 345
f 347 352 350
f 352 347 351
f 347 346 351
f 352 351 353
f 353 351 355
f 351 346 357
f 357 354 351
f 357 358 354
f 358 363 359
f 357 356 360
f 358 357 360
f 360 367 362
f 360 362 358
f 363 358 362
f 362 369 363
f 360 361 364
f 364 365 360
f 360 365 367
f 366 365 364
f 367 365 366
f 370 368 369
f 370 362 367
f 369 362 370
f 361 339 364
f 360 337 361
f 360 343 337
f 356 343 360
f 342 343 356
f 356 357 342
f 346 342 357
f 339 319 364
f 284 364 319
f 340 322 319
f 322 340 321
f 321 340 318
f 326 318 340
f 340 338 326
f 326 338 336
f 336 329 326
f 364 284 285
f 285 366 364
f 285 371 366
f 367 366 371
f 370 367 371
f 371 372 370
f 368 370 372
f 282 371 283
f 371 282 373
f 373 372 371
f 373 282 281
f 281 374 373
f 374 281 280
f 374 280 279
f 279 375 374
f 375 279 376
f 279 277 376
f 277 377 376
f 377 277 275
f 275 378 377
f 275 379 378
f 379 275 380
f 275 273 380
f 380 273 381
f 271 381 273
f 381 271 382
f 382 271 383
f 269 383 271
f 383 269 384
f 269 268 384
f 384 268 267
f 386 385 387
f 387 385 494
f 385 231 494
f 388 389 390
f 389 388 387
f 390 389 391
f 392 390 391
f 395 396 394
f 395 397 396
f 396 398 394
f 394 398 393
f 399 392 393
f 400 399 393
f 392 399 401
f 399 402 401
f 402 399 400
f 400 403 402
f 407 406 405
f 411 409 410
f 409 408 410
f 414 412 410
f 410 413 414
f 408 407 413
f 413 410 408
f 411 410 412
f 412 415 411
f 412 414 415
f 416 415 414
f 416 417 415
f 418 411 419
f 419 411 415
f 415 420 419
f 421 422 420
f 415 421 420
f 421 415 417
f 424 418 419
f 411 418 424
f 425 411 424
f 425 409 411
f 426 409 425
f 409 426 427
f 427 428 409
f 428 429 409
f 409 429 408
f 408 429 407
f 429 430 407
f 407 430 406
f 406 430 431
f 406 431 405
f 432 554 428
f 433 432 428
f 428 427 433
f 47 434 425
f 435 434 47
f 47 436 435
f 425 42 47
f 425 437 42
f 42 437 41
f 437 438 41
f 41 438 439
f 440 419 441
f 424 419 440
f 438 424 440
f 437 424 438
f 437 425 424
f 426 425 434
f 434 427 426
f 443 441 442
f 444 443 442
f 442 445 444
f 443 444 447
f 447 446 443
f 441 443 448
f 448 443 520
f 446 520 443
f 520 446 522
f 449 522 446
f 447 444 450
f 450 452 451
f 452 453 454
f 450 453 452
f 450 444 453
f 453 455 454
f 453 423 455
f 444 423 453
f 456 423 444
f 444 445 456
f 455 457 454
f 452 454 457
f 458 457 455
f 461 460 459
f 459 534 461
f 462 461 534
f 464 463 468
f 468 463 466
f 463 462 467
f 467 466 463
f 462 534 467
f 450 463 447
f 463 464 447
f 447 465 446
f 523 446 465
f 465 447 464
f 449 446 523
f 468 469 464
f 470 469 468
f 186 470 471
f 471 187 186
f 471 188 187
f 472 188 471
f 475 188 472
f 472 473 475
f 475 473 474
f 474 476 475
f 478 474 477
f 477 479 478
f 481 478 479
f 479 480 481
f 480 482 481
f 483 481 482
f 481 483 486
f 483 485 486
f 482 484 483
f 482 395 484
f 395 394 484
f 484 485 483
f 394 485 484
f 393 486 485
f 485 394 393
f 486 393 392
f 392 488 486
f 487 486 489
f 488 489 486
f 490 486 487
f 486 490 481
f 487 489 223
f 478 481 490
f 487 491 490
f 491 487 223
f 490 491 478
f 492 491 223
f 474 478 491
f 491 476 474
f 476 491 492
f 226 476 492
f 475 476 226
f 489 227 223
f 493 227 489
f 493 228 227
f 392 391 493
f 488 392 493
f 489 488 493
f 391 389 493
f 387 493 389
f 387 494 493
f 493 494 229
f 229 228 493
f 231 229 494
f 250 194 195
f 195 199 251
f 199 252 251
f 253 252 199
f 199 201 253
f 201 254 253
f 122 254 201
f 254 122 120
f 120 79 254
f 79 120 118
f 118 57 79
f 57 118 117
f 117 76 57
f 76 117 116
f 201 123 122
f 124 123 201
f 200 124 201
f 126 124 200
f 115 78 116
f 78 115 113
f 113 77 78
f 77 113 112
f 112 80 77
f 80 112 111
f 111 81 80
f 204 127 126
f 127 204 207
f 207 263 127
f 210 263 207
f 153 152 495
f 496 495 152
f 495 496 498
f 496 152 497
f 292 499 291
f 500 291 499
f 497 291 500
f 496 497 500
f 501 500 499
f 500 501 496
f 496 501 503
f 503 498 496
f 503 501 502
f 499 502 501
f 504 505 502
f 506 502 499
f 502 506 504
f 502 507 503
f 507 502 508
f 505 508 502
f 509 302 506
f 130 302 509
f 130 301 302
f 303 506 302
f 506 303 510
f 504 506 510
f 510 303 305
f 305 306 511
f 309 511 306
f 309 310 511
f 511 310 512
f 512 310 513
f 310 311 513
f 312 513 311
f 511 514 305
f 505 305 514
f 510 305 505
f 505 504 510
f 514 508 505
f 287 289 286
f 515 281 286
f 280 281 515
f 516 515 286
f 517 516 286
f 286 148 517
f 518 517 148
f 268 270 518
f 518 146 268
f 144 268 146
f 146 518 148
f 518 272 517
f 270 272 518
f 517 272 274
f 517 274 276
f 517 276 277
f 516 517 277
f 277 278 516
f 515 516 278
f 515 278 280
f 359 354 358
f 354 359 519
f 351 354 519
f 519 355 351
f 325 317 316
f 316 323 325
f 323 316 318
f 86 52 51
f 163 169 158
f 308 314 315
f 301 314 308
f 314 301 297
f 297 321 314
f 321 297 298
f 298 320 321
f 320 298 299
f 299 319 320
f 319 299 300
f 300 284 319
f 284 300 287
f 499 292 506
f 292 509 506
f 291 509 292
f 130 509 291
f 1 521 520
f 1 520 522
f 1 522 4
f 522 523 4
f 7 4 523
f 7 523 524
f 523 465 524
f 449 523 522
f 521 448 520
f 521 441 448
f 440 441 521
f 521 438 440
f 439 438 521
f 521 1 439
f 470 524 465
f 470 465 469
f 469 465 464
f 419 442 441
f 445 442 419
f 419 420 445
f 445 420 422
f 422 456 445
f 456 422 423
f 423 422 525
f 526 525 422
f 422 421 526
f 421 417 526
f 417 416 526
f 528 526 416
f 416 414 528
f 414 527 528
f 414 405 527
f 407 405 414
f 414 413 407
f 528 529 526
f 405 404 527
f 529 528 482
f 482 480 529
f 525 526 529
f 529 530 525
f 455 525 530
f 525 455 423
f 530 531 455
f 531 532 455
f 458 455 532
f 458 532 459
f 532 533 459
f 459 533 534
f 472 467 534
f 467 472 466
f 466 535 536
f 536 468 466
f 470 468 536
f 470 536 471
f 471 536 535
f 471 535 466
f 472 471 466
f 472 534 473
f 534 533 473
f 533 532 473
f 474 473 532
f 477 474 532
f 532 531 477
f 531 530 477
f 479 477 530
f 530 529 479
f 480 479 529
f 538 435 436
f 436 537 538
f 537 539 538
f 539 540 538
f 539 84 540
f 84 541 540
f 542 540 541
f 542 544 540
f 542 543 544
f 543 545 544
f 555 544 545
f 547 555 545
f 545 546 547
f 547 546 548
f 547 548 549
f 538 551 550
f 550 551 540
f 540 551 538
f 540 544 550
f 538 550 435
f 435 550 434
f 550 552 434
f 552 553 434
f 427 434 553
f 553 554 427
f 554 432 433
f 433 427 554
f 555 553 552
f 553 555 556
f 555 557 556
f 557 558 560
f 560 558 98
f 96 98 558
f 559 96 558
f 99 560 98
f 99 561 560
f 99 102 561
f 562 561 102
f 562 102 103
f 563 562 103
f 563 561 562
f 560 561 563
f 103 106 563
f 564 563 106
f 563 564 560
f 106 565 564
f 557 560 564
f 557 564 566
f 566 556 557
f 566 553 556
f 567 553 566
f 643 582 575
f 586 587 639
f 587 584 639
f 626 584 587
f 584 625 583
f 583 588 582
f 583 625 588
f 591 639 585
f 586 639 591
f 591 585 589
f 591 589 629
f 590 591 629
f 597 594 593
f 593 594 595
f 648 596 595
f 597 593 697
f 582 643 583
f 595 596 598
f 598 697 595
f 593 595 697
f 604 603 605
f 606 607 605
f 608 609 610
f 611 610 609
f 614 613 615
f 616 617 615
f 617 614 615
f 613 618 619
f 618 613 612
f 616 615 619
f 615 613 619
f 624 620 621
f 621 622 595
f 595 622 648
f 623 621 620
f 620 619 623
f 621 595 594
f 624 621 594
f 624 594 597
f 710 624 597
f 597 592 710
f 592 588 710
f 625 710 588
f 626 625 584
f 587 586 626
f 627 626 586
f 586 591 627
f 627 591 590
f 706 627 590
f 628 706 590
f 628 590 629
f 628 629 153
f 153 629 630
f 153 630 154
f 155 154 630
f 155 630 631
f 157 155 631
f 631 632 157
f 159 157 632
f 632 633 159
f 633 632 631
f 159 633 161
f 161 633 162
f 634 162 633
f 162 634 164
f 635 164 634
f 164 635 167
f 167 635 636
f 636 635 634
f 167 636 168
f 636 566 168
f 634 633 637
f 637 633 631
f 637 631 630
f 630 589 637
f 585 637 589
f 585 638 637
f 639 638 585
f 584 640 639
f 583 640 584
f 589 630 629
f 638 639 640
f 637 638 569
f 569 641 637
f 642 637 641
f 570 569 638
f 571 570 638
f 638 640 571
f 572 571 640
f 573 572 640
f 640 643 573
f 640 583 643
f 574 573 643
f 575 574 643
f 567 641 568
f 568 641 569
f 641 567 566
f 634 641 566
f 642 641 634
f 637 642 634
f 634 566 636
f 644 168 566
f 644 566 564
f 564 565 644
f 646 177 645
f 645 647 646
f 646 647 559
f 96 559 647
f 177 646 548
f 548 646 549
f 559 549 646
f 549 559 558
f 547 549 558
f 558 557 547
f 557 555 547
f 552 544 555
f 552 550 544
f 457 458 452
f 452 458 459
f 460 452 459
f 452 460 451
f 451 460 461
f 461 462 451
f 451 462 463
f 451 463 450
f 405 431 404
f 404 431 395
f 431 397 395
f 574 575 431
f 431 430 574
f 573 574 430
f 572 573 430
f 430 429 572
f 571 572 429
f 570 571 429
f 429 428 570
f 569 570 428
f 428 554 569
f 568 569 554
f 567 568 554
f 554 553 567
f 649 580 648
f 648 266 649
f 650 266 648
f 599 650 648
f 599 600 650
f 601 650 600
f 601 651 650
f 601 652 651
f 652 601 602
f 603 652 602
f 603 382 652
f 604 382 603
f 604 653 382
f 605 653 604
f 605 379 653
f 607 379 605
f 607 606 379
f 378 379 606
f 377 378 606
f 606 608 377
f 376 377 608
f 610 376 608
f 376 610 375
f 374 375 610
f 610 611 374
f 611 612 374
f 373 374 612
f 612 613 373
f 614 617 613
f 617 654 613
f 654 372 613
f 613 372 373
f 654 617 655
f 682 655 617
f 682 656 655
f 656 658 655
f 655 657 654
f 368 654 657
f 372 654 368
f 663 658 659
f 663 660 658
f 658 660 655
f 657 655 660
f 661 662 660
f 662 368 657
f 657 660 662
f 667 663 659
f 667 660 663
f 660 667 664
f 665 661 660
f 664 665 660
f 659 666 667
f 666 668 667
f 668 669 667
f 669 664 667
f 670 668 352
f 670 669 668
f 671 665 664
f 350 352 668
f 668 672 350
f 672 668 666
f 672 673 350
f 674 673 672
f 672 693 674
f 673 674 348
f 348 350 673
f 693 672 675
f 677 675 672
f 675 677 679
f 676 675 678
f 678 675 679
f 679 680 681
f 681 683 682
f 681 680 683
f 684 685 681
f 681 682 684
f 687 681 685
f 686 689 687
f 686 687 325
f 689 686 688
f 690 689 688
f 687 689 691
f 689 690 694
f 694 690 692
f 689 694 691
f 694 693 691
f 333 694 692
f 694 333 695
f 335 695 333
f 694 695 693
f 678 679 691
f 687 691 679
f 679 681 687
f 691 693 675
f 675 676 691
f 676 678 691
f 695 674 693
f 674 695 335
f 335 348 674
f 580 649 264
f 264 581 580
f 580 579 696
f 697 696 579
f 597 697 698
f 699 597 698
f 697 598 696
f 582 699 575
f 699 698 576
f 576 575 699
f 577 576 698
f 698 697 578
f 578 577 698
f 579 578 697
f 580 696 598
f 580 598 596
f 596 648 580
f 390 700 388
f 387 388 700
f 387 700 702
f 700 390 703
f 703 701 700
f 704 703 390
f 704 390 401
f 702 386 387
f 236 235 386
f 385 386 235
f 232 385 235
f 232 231 385
f 239 236 386
f 702 239 386
f 239 702 240
f 700 240 702
f 705 240 700
f 700 701 705
f 705 701 703
f 245 705 703
f 704 245 703
f 245 704 246
f 704 401 246
f 246 401 402
f 401 390 392
f 527 482 528
f 527 404 482
f 404 395 482
f 495 628 153
f 628 495 707
f 498 707 495
f 706 628 707
f 708 627 706
f 626 627 708
f 708 711 626
f 709 626 711
f 625 626 709
f 710 625 709
f 711 716 709
f 712 711 713
f 715 711 712
f 711 715 716
f 716 717 709
f 710 709 717
f 717 719 710
f 719 721 710
f 624 710 721
f 721 620 624
f 716 719 717
f 719 716 718
f 720 721 719
f 721 619 620
f 723 725 724
f 726 722 723
f 723 312 726
f 724 312 723
f 317 726 312
f 722 726 727
f 312 724 728
f 728 724 736
f 729 718 727
f 729 727 730
f 731 729 730
f 722 727 718
f 730 727 685
f 687 685 727
f 727 726 687
f 325 687 726
f 726 317 325
f 685 684 730
f 731 730 684
f 616 731 684
f 684 682 616
f 683 656 682
f 683 658 656
f 680 658 683
f 680 659 658
f 679 659 680
f 659 679 677
f 659 677 672
f 672 666 659
f 617 616 682
f 732 737 733
f 732 733 734
f 734 735 732
f 736 735 734
f 732 715 737
f 738 739 737
f 733 737 739
f 715 712 737
f 739 734 733
f 739 738 740
f 739 740 734
f 724 735 736
f 735 724 725
f 725 732 735
f 732 725 723
f 718 715 732
f 718 732 723
f 716 715 718
f 723 722 718
f 740 511 741
f 740 741 734
f 741 736 734
f 736 741 512
f 736 512 513
f 736 513 728
f 513 312 728
f 742 511 740
f 742 514 511
f 743 742 740
f 740 738 743
f 738 714 743
f 714 738 737
f 737 713 714
f 737 712 713
f 714 744 745
f 745 746 747
f 747 714 745
f 507 745 748
f 508 745 507
f 745 508 746
f 749 746 508
f 714 747 743
f 743 747 746
f 746 742 743
f 514 742 746
f 746 749 514
f 503 748 745
f 745 750 503
f 503 750 751
f 751 750 744
f 744 752 751
f 752 744 753
f 753 754 752
f 753 708 754
f 754 708 706
f 754 706 752
f 752 706 707
f 707 751 752
f 503 751 707
f 707 498 503
f 745 744 750
f 744 714 753
f 713 753 714
f 713 708 753
f 713 711 708
f 618 623 619
f 755 623 618
f 618 612 755
f 755 612 611
f 623 755 756
f 623 756 757
f 757 621 623
f 758 621 757
f 621 758 759
f 759 760 621
f 759 602 760
f 602 601 760
f 601 600 760
f 760 600 599
f 621 760 622
f 622 760 599
f 599 648 622
f 603 759 758
f 603 602 759
f 758 605 603
f 758 606 605
f 606 758 757
f 757 608 606
f 608 757 756
f 756 609 608
f 609 756 755
f 609 755 611
f 397 431 575
f 575 576 397
f 397 576 577
f 577 396 397
f 577 398 396
f 577 578 398
f 393 398 578
f 578 579 393
f 400 393 579
f 579 580 400
f 403 400 580
f 580 581 403
f 718 729 719
f 720 719 729
f 729 731 720
f 731 616 720
f 721 720 616
f 619 721 616
f 8 184 9
f 184 8 185
f 7 185 8
f 7 186 185
f 186 7 470
f 7 524 470
f 519 671 664
f 519 664 669
f 669 670 519
f 761 782 762
f 761 764 782
f 764 761 763
f 764 763 765
f 766 767 765
f 768 767 766
f 777 767 768
f 769 777 768
f 769 768 774
f 774 770 769
f 770 771 769
f 770 828 771
f 770 829 828
f 772 768 766
f 768 772 773
f 774 768 773
f 830 829 770
f 775 769 771
f 769 775 776
f 769 776 777
f 778 767 777
f 779 767 778
f 767 779 765
f 780 765 779
f 765 780 764
f 781 764 780
f 764 781 782
f 783 762 782
f 783 784 762
f 785 762 784
f 762 785 839
f 839 761 762
f 761 839 786
f 761 786 763
f 787 765 763
f 765 787 766
f 785 784 788
f 789 790 788
f 790 791 792
f 793 792 791
f 794 792 793
f 795 794 793
f 798 797 796
f 797 798 799
f 800 799 798
f 801 800 802
f 798 803 800
f 802 800 803
f 804 803 798
f 804 798 796
f 796 805 804
f 805 806 807
f 806 808 807
f 809 807 808
f 809 808 810
f 811 810 808
f 812 810 811
f 813 810 812
f 810 813 809
f 840 804 805
f 805 814 840
f 814 805 807
f 807 809 813
f 815 807 813
f 816 807 815
f 807 816 814
f 795 793 808
f 808 806 795
f 795 806 805
f 805 796 795
f 817 812 811
f 817 818 812
f 818 817 789
f 817 790 789
f 811 790 817
f 791 790 811
f 791 811 793
f 808 793 811
f 789 819 818
f 819 789 788
f 820 819 788
f 788 784 820
f 820 784 821
f 783 821 784
f 821 783 782
f 782 822 821
f 822 782 781
f 823 822 781
f 824 823 781
f 781 780 824
f 780 779 824
f 824 779 778
f 778 825 824
f 778 777 825
f 826 825 777
f 777 776 826
f 776 775 826
f 826 775 771
f 771 827 826
f 827 771 828
f 770 831 830
f 770 832 831
f 833 834 832
f 834 833 800
f 800 801 834
f 800 833 835
f 835 799 800
f 799 835 797
f 797 835 836
f 797 836 796
f 796 836 837
f 837 795 796
f 795 837 794
f 792 794 837
f 837 838 792
f 839 792 838
f 790 792 839
f 839 788 790
f 785 788 839
f 838 786 839
f 837 786 838
f 763 786 837
f 787 763 837
f 836 787 837
f 766 787 836
f 772 766 836
f 773 772 836
f 836 835 773
f 774 773 835
f 770 774 835
f 833 770 835
f 770 833 832
f 840 803 804
f 803 840 802
f 802 841 842
f 842 801 802
f 842 834 801
f 832 834 842
f 842 843 832
f 832 843 831
f 844 831 843
f 844 830 831
f 830 844 845
f 845 829 830
f 829 845 846
f 846 828 829
f 828 846 827
f 802 847 841
f 847 802 840
f 847 840 848
f 848 840 849
f 814 849 840
f 814 816 849
f 849 816 815
f 815 850 849
f 850 815 813
f 813 851 850
f 851 813 852
f 852 813 853
f 813 812 853
f 812 818 853
f 818 819 854
f 854 855 818
f 853 855 854
f 854 852 853
f 852 854 851
f 851 854 856
f 857 858 856
f 848 857 859
f 860 848 859
f 860 859 847
f 847 859 861
f 864 862 861
f 864 861 863
f 826 864 863
f 826 827 864
f 844 864 827
f 827 845 844
f 865 866 867
f 868 867 866
f 869 867 868
f 871 869 868
f 868 870 871
f 870 872 871
f 873 871 872
f 873 874 871
f 874 873 875
f 877 875 876
f 876 878 877
f 878 879 877
f 879 878 880
f 881 882 871
f 869 871 882
f 867 869 882
f 882 883 867
f 883 884 867
f 865 867 884
f 884 885 865
f 887 865 885
f 865 887 886
f 865 886 866
f 888 868 866
f 868 888 889
f 868 889 890
f 890 870 868
f 890 872 870
f 872 890 891
f 891 873 872
f 873 891 892
f 873 892 893
f 893 875 873
f 876 875 893
f 878 876 893
f 893 894 878
f 894 895 878
f 880 878 895
f 895 896 880
f 880 896 879
f 897 879 898
f 896 898 879
f 899 897 898
f 899 900 901
f 900 902 901
f 904 903 901
f 904 905 903
f 904 906 905
f 907 905 906
f 909 907 908
f 909 908 910
f 912 911 913
f 906 904 916
f 914 916 904
f 915 914 904
f 920 921 919
f 921 920 922
f 923 922 924
f 924 922 920
f 920 925 924
f 917 916 926
f 926 927 917
f 920 928 925
f 928 920 919
f 919 929 928
f 929 919 918
f 927 929 918
f 918 917 927
f 930 926 916
f 916 914 930
f 914 915 930
f 902 930 915
f 915 901 902
f 901 915 904
f 930 902 931
f 902 900 931
f 932 931 900
f 900 899 932
f 898 932 899
f 932 898 933
f 933 898 934
f 896 934 898
f 896 895 934
f 935 934 895
f 936 935 895
f 895 894 936
f 894 893 936
f 936 893 937
f 893 892 937
f 892 891 937
f 937 891 938
f 891 890 938
f 938 890 939
f 890 889 939
f 888 939 889
f 939 888 940
f 888 866 940
f 941 940 866
f 866 886 941
f 887 941 886
f 887 942 941
f 942 887 943
f 943 887 885
f 912 943 885
f 885 911 912
f 911 885 944
f 944 910 911
f 945 910 944
f 945 909 910
f 946 909 945
f 946 907 909
f 907 946 905
f 947 905 946
f 905 947 903
f 948 903 947
f 901 903 948
f 948 899 901
f 884 883 945
f 945 944 884
f 885 884 944
f 947 881 949
f 949 881 871
f 871 874 949
f 874 875 949
f 877 949 875
f 877 950 949
f 949 948 947
f 948 949 950
f 948 950 877
f 877 899 948
f 877 897 899
f 877 879 897
f 882 881 947
f 947 946 882
f 946 945 882
f 883 882 945
f 916 917 906
f 918 906 917
f 906 918 919
f 919 907 906
f 907 919 921
f 907 921 908
f 908 921 922
f 908 922 910
f 910 922 923
f 923 911 910
f 913 911 923
f 923 924 913
f 951 913 924
f 951 924 953
f 912 913 951
f 951 952 912
f 912 952 943
f 943 952 942
f 925 953 924
f 928 953 925
f 953 928 954
f 928 929 954
f 955 954 929
f 927 955 929
f 955 927 926
f 926 956 955
f 930 956 926
f 956 930 957
f 958 957 930
f 931 958 930
f 959 952 951
f 951 960 959
f 959 960 953
f 953 961 959
f 959 961 962
f 963 959 962
f 939 963 962
f 956 958 964
f 966 967 965
f 933 968 967
f 933 969 968
f 935 968 969
f 582 588 699
f 588 592 699
f 699 592 597

