<?xml version="1.0" encoding="UTF-8"?>
<svg xmlns="http://www.w3.org/2000/svg" xmlns:xlink="http://www.w3.org/1999/xlink" width="1920pt" height="1080pt" viewBox="0 0 1920 1080" version="1.1">
<defs>
<g>
<symbol overflow="visible" id="glyph0-0">
<path style="stroke:none;" d="M 0.578125 2.0625 L 0.578125 -8.234375 L 6.421875 -8.234375 L 6.421875 2.0625 Z M 1.234375 1.40625 L 5.765625 1.40625 L 5.765625 -7.578125 L 1.234375 -7.578125 Z "/>
</symbol>
<symbol overflow="visible" id="glyph0-1">
<path style="stroke:none;" d="M 2.109375 0 L 2.109375 -0.6875 L 3.25 -0.6875 L 3.25 -7.734375 L 0.90625 -7.734375 L 0.90625 -6.390625 L 0.125 -6.390625 L 0.125 -8.515625 L 8.5625 -8.515625 L 8.5625 -6.390625 L 7.796875 -6.390625 L 7.796875 -7.734375 L 5.453125 -7.734375 L 5.453125 -0.6875 L 6.578125 -0.6875 L 6.578125 0 Z "/>
</symbol>
<symbol overflow="visible" id="glyph0-2">
<path style="stroke:none;" d="M 6.296875 -6.0625 L 7.671875 -2.015625 L 8.8125 -5.375 L 8.015625 -5.375 L 8.015625 -6.0625 L 10.28125 -6.0625 L 10.28125 -5.375 L 9.5625 -5.375 L 7.734375 0 L 6.34375 0 L 5.0625 -3.796875 L 3.765625 0 L 2.390625 0 L 0.5625 -5.375 L -0.109375 -5.375 L -0.109375 -6.0625 L 3.328125 -6.0625 L 3.328125 -5.375 L 2.609375 -5.375 L 3.734375 -2.09375 L 5.09375 -6.0625 Z "/>
</symbol>
<symbol overflow="visible" id="glyph0-3">
<path style="stroke:none;" d="M 3.890625 -0.484375 C 4.316406 -0.484375 4.617188 -0.664062 4.796875 -1.03125 C 4.972656 -1.394531 5.0625 -2.0625 5.0625 -3.03125 C 5.0625 -4 4.972656 -4.664062 4.796875 -5.03125 C 4.628906 -5.394531 4.328125 -5.578125 3.890625 -5.578125 C 3.460938 -5.578125 3.160156 -5.394531 2.984375 -5.03125 C 2.816406 -4.664062 2.734375 -4 2.734375 -3.03125 C 2.734375 -2.0625 2.816406 -1.394531 2.984375 -1.03125 C 3.160156 -0.664062 3.460938 -0.484375 3.890625 -0.484375 Z M 3.890625 0.171875 C 2.828125 0.171875 1.992188 -0.109375 1.390625 -0.671875 C 0.785156 -1.242188 0.484375 -2.03125 0.484375 -3.03125 C 0.484375 -4.03125 0.785156 -4.8125 1.390625 -5.375 C 1.992188 -5.9375 2.828125 -6.21875 3.890625 -6.21875 C 4.960938 -6.21875 5.800781 -5.9375 6.40625 -5.375 C 7.007812 -4.8125 7.3125 -4.03125 7.3125 -3.03125 C 7.3125 -2.03125 7.007812 -1.242188 6.40625 -0.671875 C 5.800781 -0.109375 4.960938 0.171875 3.890625 0.171875 Z "/>
</symbol>
<symbol overflow="visible" id="glyph0-4">
<path style="stroke:none;" d=""/>
</symbol>
<symbol overflow="visible" id="glyph0-5">
<path style="stroke:none;" d="M 0.546875 0 L 0.546875 -0.6875 L 1.640625 -0.6875 L 1.640625 -7.8125 L 0.546875 -7.8125 L 0.546875 -8.515625 L 4.921875 -8.515625 L 4.921875 -7.8125 L 3.828125 -7.8125 L 3.828125 -0.78125 L 7.1875 -0.78125 L 7.1875 -2.125 L 7.953125 -2.125 L 7.953125 0 Z "/>
</symbol>
<symbol overflow="visible" id="glyph0-6">
<path style="stroke:none;" d="M 1.078125 -7.78125 C 1.078125 -8.082031 1.179688 -8.335938 1.390625 -8.546875 C 1.597656 -8.765625 1.859375 -8.875 2.171875 -8.875 C 2.472656 -8.875 2.726562 -8.765625 2.9375 -8.546875 C 3.144531 -8.335938 3.25 -8.082031 3.25 -7.78125 C 3.25 -7.476562 3.144531 -7.21875 2.9375 -7 C 2.726562 -6.789062 2.472656 -6.6875 2.171875 -6.6875 C 1.859375 -6.6875 1.597656 -6.789062 1.390625 -7 C 1.179688 -7.207031 1.078125 -7.46875 1.078125 -7.78125 Z M 3.28125 -0.6875 L 4.140625 -0.6875 L 4.140625 0 L 0.40625 0 L 0.40625 -0.6875 L 1.265625 -0.6875 L 1.265625 -5.375 L 0.40625 -5.375 L 0.40625 -6.0625 L 3.28125 -6.0625 Z "/>
</symbol>
<symbol overflow="visible" id="glyph0-7">
<path style="stroke:none;" d="M 5.640625 -7.359375 L 5.015625 -7.359375 C 4.984375 -7.648438 4.894531 -7.867188 4.75 -8.015625 C 4.601562 -8.160156 4.398438 -8.234375 4.140625 -8.234375 C 3.835938 -8.234375 3.617188 -8.125 3.484375 -7.90625 C 3.347656 -7.6875 3.28125 -7.332031 3.28125 -6.84375 L 3.28125 -6.0625 L 4.796875 -6.0625 L 4.796875 -5.375 L 3.28125 -5.375 L 3.28125 -0.6875 L 4.453125 -0.6875 L 4.453125 0 L 0.40625 0 L 0.40625 -0.6875 L 1.265625 -0.6875 L 1.265625 -5.375 L 0.359375 -5.375 L 0.359375 -6.0625 L 1.265625 -6.0625 L 1.265625 -6.8125 C 1.265625 -7.488281 1.476562 -8 1.90625 -8.34375 C 2.332031 -8.695312 2.960938 -8.875 3.796875 -8.875 C 4.117188 -8.875 4.429688 -8.851562 4.734375 -8.8125 C 5.046875 -8.78125 5.347656 -8.726562 5.640625 -8.65625 Z "/>
</symbol>
<symbol overflow="visible" id="glyph0-8">
<path style="stroke:none;" d="M 4.671875 -3.421875 C 4.671875 -4.210938 4.597656 -4.769531 4.453125 -5.09375 C 4.304688 -5.414062 4.054688 -5.578125 3.703125 -5.578125 C 3.359375 -5.578125 3.109375 -5.421875 2.953125 -5.109375 C 2.804688 -4.796875 2.734375 -4.265625 2.734375 -3.515625 L 2.734375 -3.421875 Z M 6.890625 -2.734375 L 2.734375 -2.734375 L 2.734375 -2.703125 C 2.734375 -1.910156 2.847656 -1.34375 3.078125 -1 C 3.316406 -0.65625 3.695312 -0.484375 4.21875 -0.484375 C 4.65625 -0.484375 5.007812 -0.597656 5.28125 -0.828125 C 5.550781 -1.054688 5.722656 -1.390625 5.796875 -1.828125 L 6.75 -1.828125 C 6.582031 -1.140625 6.253906 -0.632812 5.765625 -0.3125 C 5.285156 0.0078125 4.609375 0.171875 3.734375 0.171875 C 2.679688 0.171875 1.875 -0.101562 1.3125 -0.65625 C 0.757812 -1.21875 0.484375 -2.007812 0.484375 -3.03125 C 0.484375 -4.03125 0.769531 -4.8125 1.34375 -5.375 C 1.914062 -5.9375 2.710938 -6.21875 3.734375 -6.21875 C 4.734375 -6.21875 5.5 -5.921875 6.03125 -5.328125 C 6.570312 -4.742188 6.859375 -3.878906 6.890625 -2.734375 Z "/>
</symbol>
<symbol overflow="visible" id="glyph0-9">
<path style="stroke:none;" d="M 0.546875 -0.171875 L 0.546875 -1.875 L 1.1875 -1.875 C 1.238281 -1.414062 1.40625 -1.066406 1.6875 -0.828125 C 1.976562 -0.597656 2.367188 -0.484375 2.859375 -0.484375 C 3.265625 -0.484375 3.578125 -0.550781 3.796875 -0.6875 C 4.015625 -0.832031 4.125 -1.039062 4.125 -1.3125 C 4.125 -1.550781 4.054688 -1.734375 3.921875 -1.859375 C 3.785156 -1.992188 3.519531 -2.113281 3.125 -2.21875 L 2.28125 -2.421875 C 1.65625 -2.578125 1.203125 -2.800781 0.921875 -3.09375 C 0.640625 -3.382812 0.5 -3.78125 0.5 -4.28125 C 0.5 -4.9375 0.726562 -5.421875 1.1875 -5.734375 C 1.644531 -6.054688 2.347656 -6.21875 3.296875 -6.21875 C 3.648438 -6.21875 4.03125 -6.1875 4.4375 -6.125 C 4.84375 -6.070312 5.289062 -5.984375 5.78125 -5.859375 L 5.78125 -4.328125 L 5.140625 -4.328125 C 5.097656 -4.742188 4.945312 -5.054688 4.6875 -5.265625 C 4.425781 -5.472656 4.054688 -5.578125 3.578125 -5.578125 C 3.160156 -5.578125 2.847656 -5.507812 2.640625 -5.375 C 2.429688 -5.25 2.328125 -5.0625 2.328125 -4.8125 C 2.328125 -4.601562 2.382812 -4.441406 2.5 -4.328125 C 2.625 -4.210938 2.84375 -4.113281 3.15625 -4.03125 L 3.984375 -3.8125 C 4.785156 -3.613281 5.335938 -3.363281 5.640625 -3.0625 C 5.941406 -2.769531 6.09375 -2.359375 6.09375 -1.828125 C 6.09375 -1.148438 5.847656 -0.644531 5.359375 -0.3125 C 4.867188 0.0078125 4.109375 0.171875 3.078125 0.171875 C 2.703125 0.171875 2.300781 0.140625 1.875 0.078125 C 1.457031 0.0234375 1.015625 -0.0546875 0.546875 -0.171875 Z "/>
</symbol>
<symbol overflow="visible" id="glyph0-10">
<path style="stroke:none;" d="M 1.15625 -5.375 L 0.28125 -5.375 L 0.28125 -6.0625 L 1.15625 -6.0625 L 1.15625 -7.9375 L 3.171875 -7.9375 L 3.171875 -6.0625 L 4.859375 -6.0625 L 4.859375 -5.375 L 3.171875 -5.375 L 3.171875 -1.65625 C 3.171875 -1.125 3.210938 -0.796875 3.296875 -0.671875 C 3.378906 -0.546875 3.53125 -0.484375 3.75 -0.484375 C 4 -0.484375 4.179688 -0.5625 4.296875 -0.71875 C 4.410156 -0.882812 4.472656 -1.140625 4.484375 -1.484375 L 5.328125 -1.484375 C 5.296875 -0.867188 5.128906 -0.4375 4.828125 -0.1875 C 4.535156 0.0507812 4.023438 0.171875 3.296875 0.171875 C 2.460938 0.171875 1.894531 0.0390625 1.59375 -0.21875 C 1.300781 -0.476562 1.15625 -0.957031 1.15625 -1.65625 Z "/>
</symbol>
<symbol overflow="visible" id="glyph0-11">
<path style="stroke:none;" d="M 3.640625 1.375 C 3.460938 1.8125 3.242188 2.125 2.984375 2.3125 C 2.722656 2.5 2.375 2.59375 1.9375 2.59375 C 1.75 2.59375 1.539062 2.570312 1.3125 2.53125 C 1.082031 2.488281 0.832031 2.425781 0.5625 2.34375 L 0.5625 1.078125 L 1.21875 1.09375 C 1.226562 1.382812 1.296875 1.597656 1.421875 1.734375 C 1.546875 1.878906 1.738281 1.953125 2 1.953125 C 2.238281 1.953125 2.4375 1.882812 2.59375 1.75 C 2.75 1.613281 2.898438 1.359375 3.046875 0.984375 L 3.140625 0.765625 L 0.5 -5.375 L -0.15625 -5.375 L -0.15625 -6.0625 L 3.34375 -6.0625 L 3.34375 -5.375 L 2.609375 -5.375 L 4.15625 -1.78125 L 5.59375 -5.375 L 4.78125 -5.375 L 4.78125 -6.0625 L 7.0625 -6.0625 L 7.0625 -5.375 L 6.328125 -5.375 Z "/>
</symbol>
<symbol overflow="visible" id="glyph0-12">
<path style="stroke:none;" d="M 3.28125 -0.6875 L 4.140625 -0.6875 L 4.140625 0 L 0.40625 0 L 0.40625 -0.6875 L 1.265625 -0.6875 L 1.265625 -8.1875 L 0.40625 -8.1875 L 0.40625 -8.875 L 3.28125 -8.875 Z "/>
</symbol>
</g>
</defs>
<g id="surface1">
<g style="fill:rgb(100%,100%,100%);fill-opacity:1;">
  <use xlink:href="#glyph0-1" x="30" y="30.955078"/>
  <use xlink:href="#glyph0-2" x="37" y="30.955078"/>
  <use xlink:href="#glyph0-3" x="47" y="30.955078"/>
  <use xlink:href="#glyph0-4" x="55" y="30.955078"/>
  <use xlink:href="#glyph0-5" x="59" y="30.955078"/>
  <use xlink:href="#glyph0-6" x="67" y="30.955078"/>
  <use xlink:href="#glyph0-7" x="71" y="30.955078"/>
  <use xlink:href="#glyph0-8" x="76" y="30.955078"/>
  <use xlink:href="#glyph0-9" x="83" y="30.955078"/>
  <use xlink:href="#glyph0-10" x="90" y="30.955078"/>
  <use xlink:href="#glyph0-11" x="95" y="30.955078"/>
  <use xlink:href="#glyph0-12" x="102" y="30.955078"/>
  <use xlink:href="#glyph0-8" x="106" y="30.955078"/>
  <use xlink:href="#glyph0-9" x="113" y="30.955078"/>
</g>
</g>
</svg>
