<?xml version="1.0" encoding="UTF-8"?>
<svg xmlns="http://www.w3.org/2000/svg" xmlns:xlink="http://www.w3.org/1999/xlink" width="854pt" height="480pt" viewBox="0 0 854 480" version="1.1">
<defs>
<g>
<symbol overflow="visible" id="glyph0-0">
<path style="stroke:none;" d="M 0.46875 1.671875 L 0.46875 -6.65625 L 5.1875 -6.65625 L 5.1875 1.671875 Z M 1 1.140625 L 4.65625 1.140625 L 4.65625 -6.125 L 1 -6.125 Z "/>
</symbol>
<symbol overflow="visible" id="glyph0-1">
<path style="stroke:none;" d="M 7.765625 -3.4375 C 7.765625 -2.457031 7.414062 -1.625 6.71875 -0.9375 C 6.03125 -0.25 5.195312 0.09375 4.21875 0.09375 C 3.25 0.09375 2.421875 -0.25 1.734375 -0.9375 C 1.046875 -1.625 0.703125 -2.457031 0.703125 -3.4375 C 0.703125 -4.039062 0.859375 -4.628906 1.171875 -5.203125 C 1.492188 -5.773438 1.9375 -6.210938 2.5 -6.515625 C 3.0625 -6.816406 3.632812 -6.96875 4.21875 -6.96875 C 4.8125 -6.96875 5.390625 -6.816406 5.953125 -6.515625 C 6.523438 -6.210938 6.96875 -5.773438 7.28125 -5.203125 C 7.601562 -4.640625 7.765625 -4.050781 7.765625 -3.4375 Z M 1.078125 -3.4375 C 1.078125 -2.5625 1.382812 -1.816406 2 -1.203125 C 2.613281 -0.585938 3.359375 -0.28125 4.234375 -0.28125 C 5.097656 -0.28125 5.835938 -0.585938 6.453125 -1.203125 C 7.066406 -1.816406 7.375 -2.5625 7.375 -3.4375 C 7.375 -3.988281 7.234375 -4.515625 6.953125 -5.015625 C 6.671875 -5.515625 6.28125 -5.898438 5.78125 -6.171875 C 5.28125 -6.441406 4.765625 -6.578125 4.234375 -6.578125 C 3.703125 -6.578125 3.179688 -6.441406 2.671875 -6.171875 C 2.171875 -5.898438 1.78125 -5.515625 1.5 -5.015625 C 1.21875 -4.515625 1.078125 -3.988281 1.078125 -3.4375 Z M 5.46875 -3.578125 C 5.507812 -3.566406 5.617188 -3.460938 5.796875 -3.265625 C 5.984375 -3.066406 6.078125 -2.820312 6.078125 -2.53125 C 6.078125 -2.101562 5.910156 -1.769531 5.578125 -1.53125 C 5.242188 -1.289062 4.78125 -1.171875 4.1875 -1.171875 C 3.988281 -1.171875 3.785156 -1.1875 3.578125 -1.21875 C 3.367188 -1.25 3.128906 -1.304688 2.859375 -1.390625 L 2.859375 -2.171875 C 3.140625 -2.023438 3.375 -1.925781 3.5625 -1.875 C 3.757812 -1.832031 3.960938 -1.8125 4.171875 -1.8125 C 4.523438 -1.8125 4.789062 -1.875 4.96875 -2 C 5.144531 -2.125 5.234375 -2.300781 5.234375 -2.53125 C 5.234375 -2.75 5.148438 -2.914062 4.984375 -3.03125 C 4.816406 -3.15625 4.582031 -3.21875 4.28125 -3.21875 L 3.640625 -3.21875 L 3.640625 -3.859375 L 4.3125 -3.859375 C 4.582031 -3.859375 4.785156 -3.90625 4.921875 -4 C 5.054688 -4.09375 5.125 -4.226562 5.125 -4.40625 C 5.125 -4.59375 5.050781 -4.734375 4.90625 -4.828125 C 4.769531 -4.929688 4.5625 -4.984375 4.28125 -4.984375 C 4.125 -4.984375 3.953125 -4.960938 3.765625 -4.921875 C 3.578125 -4.890625 3.320312 -4.828125 3 -4.734375 L 3 -5.421875 C 3.289062 -5.492188 3.539062 -5.546875 3.75 -5.578125 C 3.957031 -5.609375 4.15625 -5.625 4.34375 -5.625 C 4.832031 -5.625 5.222656 -5.519531 5.515625 -5.3125 C 5.816406 -5.101562 5.96875 -4.820312 5.96875 -4.46875 C 5.96875 -4.21875 5.890625 -4.003906 5.734375 -3.828125 C 5.578125 -3.660156 5.488281 -3.578125 5.46875 -3.578125 Z "/>
</symbol>
<symbol overflow="visible" id="glyph1-0">
<path style="stroke:none;" d="M 0.890625 0 L 0.890625 -6.734375 L 4.765625 -6.734375 L 4.765625 0 Z M 1.375 -0.484375 L 4.28125 -0.484375 L 4.28125 -6.25 L 1.375 -6.25 Z "/>
</symbol>
<symbol overflow="visible" id="glyph1-1">
<path style="stroke:none;" d=""/>
</symbol>
<symbol overflow="visible" id="glyph1-2">
<path style="stroke:none;" d="M 2.84375 0.09375 C 2.101562 0.09375 1.570312 -0.0703125 1.25 -0.40625 C 0.925781 -0.75 0.765625 -1.238281 0.765625 -1.875 L 0.765625 -5.171875 L 1.609375 -5.171875 L 1.609375 -1.859375 C 1.609375 -1.023438 2.019531 -0.609375 2.84375 -0.609375 C 3.269531 -0.609375 3.582031 -0.710938 3.78125 -0.921875 C 3.988281 -1.128906 4.09375 -1.441406 4.09375 -1.859375 L 4.09375 -7.03125 L 4.9375 -7.03125 L 4.9375 -1.875 C 4.9375 -1.238281 4.773438 -0.75 4.453125 -0.40625 C 4.128906 -0.0703125 3.59375 0.09375 2.84375 0.09375 Z "/>
</symbol>
<symbol overflow="visible" id="glyph1-3">
<path style="stroke:none;" d="M 2.21875 0.09375 C 1.84375 0.09375 1.492188 0.0546875 1.171875 -0.015625 C 0.859375 -0.0859375 0.59375 -0.175781 0.375 -0.28125 L 0.625 -0.953125 C 0.820312 -0.867188 1.0625 -0.789062 1.34375 -0.71875 C 1.625 -0.644531 1.921875 -0.609375 2.234375 -0.609375 C 2.566406 -0.609375 2.84375 -0.671875 3.0625 -0.796875 C 3.28125 -0.921875 3.390625 -1.101562 3.390625 -1.34375 C 3.390625 -1.550781 3.300781 -1.722656 3.125 -1.859375 C 2.957031 -2.003906 2.675781 -2.132812 2.28125 -2.25 C 1.882812 -2.375 1.550781 -2.507812 1.28125 -2.65625 C 1.007812 -2.800781 0.800781 -2.972656 0.65625 -3.171875 C 0.507812 -3.367188 0.4375 -3.613281 0.4375 -3.90625 C 0.4375 -4.300781 0.597656 -4.625 0.921875 -4.875 C 1.242188 -5.132812 1.757812 -5.265625 2.46875 -5.265625 C 2.769531 -5.265625 3.050781 -5.238281 3.3125 -5.1875 C 3.582031 -5.132812 3.789062 -5.0625 3.9375 -4.96875 L 3.9375 -4.25 C 3.78125 -4.332031 3.5625 -4.40625 3.28125 -4.46875 C 3.007812 -4.539062 2.726562 -4.578125 2.4375 -4.578125 C 2.007812 -4.578125 1.707031 -4.507812 1.53125 -4.375 C 1.363281 -4.25 1.28125 -4.101562 1.28125 -3.9375 C 1.28125 -3.800781 1.316406 -3.6875 1.390625 -3.59375 C 1.472656 -3.5 1.609375 -3.40625 1.796875 -3.3125 C 1.992188 -3.226562 2.253906 -3.128906 2.578125 -3.015625 C 2.878906 -2.921875 3.15625 -2.804688 3.40625 -2.671875 C 3.664062 -2.535156 3.867188 -2.367188 4.015625 -2.171875 C 4.160156 -1.972656 4.234375 -1.722656 4.234375 -1.421875 C 4.234375 -1.148438 4.164062 -0.898438 4.03125 -0.671875 C 3.90625 -0.441406 3.695312 -0.253906 3.40625 -0.109375 C 3.113281 0.0234375 2.71875 0.09375 2.21875 0.09375 Z "/>
</symbol>
<symbol overflow="visible" id="glyph1-4">
<path style="stroke:none;" d="M 1.4375 -3.25 C 1.050781 -3.25 0.773438 -3.332031 0.609375 -3.5 C 0.453125 -3.664062 0.375 -3.851562 0.375 -4.0625 C 0.375 -4.269531 0.421875 -4.453125 0.515625 -4.609375 L 1.234375 -4.5 C 1.210938 -4.457031 1.191406 -4.410156 1.171875 -4.359375 C 1.160156 -4.304688 1.15625 -4.25 1.15625 -4.1875 C 1.15625 -4.101562 1.175781 -4.035156 1.21875 -3.984375 C 1.269531 -3.929688 1.351562 -3.90625 1.46875 -3.90625 L 2.828125 -3.90625 L 2.828125 -3.25 Z M 1.4375 -0.609375 C 1.050781 -0.609375 0.773438 -0.691406 0.609375 -0.859375 C 0.453125 -1.023438 0.375 -1.210938 0.375 -1.421875 C 0.375 -1.628906 0.421875 -1.8125 0.515625 -1.96875 L 1.234375 -1.84375 C 1.210938 -1.8125 1.191406 -1.765625 1.171875 -1.703125 C 1.160156 -1.648438 1.15625 -1.597656 1.15625 -1.546875 C 1.15625 -1.460938 1.175781 -1.394531 1.21875 -1.34375 C 1.269531 -1.289062 1.351562 -1.265625 1.46875 -1.265625 L 2.828125 -1.265625 L 2.828125 -0.609375 Z "/>
</symbol>
<symbol overflow="visible" id="glyph1-5">
<path style="stroke:none;" d="M 0.71875 0 L 0.71875 -1.796875 C 0.71875 -2.191406 0.804688 -2.476562 0.984375 -2.65625 C 1.160156 -2.832031 1.382812 -2.957031 1.65625 -3.03125 L 1.65625 -3.0625 L 0.625 -3.453125 L 0.625 -3.765625 C 0.625 -4.023438 0.707031 -4.269531 0.875 -4.5 C 1.039062 -4.726562 1.28125 -4.910156 1.59375 -5.046875 C 1.914062 -5.191406 2.300781 -5.265625 2.75 -5.265625 C 3.132812 -5.265625 3.488281 -5.203125 3.8125 -5.078125 C 4.132812 -4.953125 4.394531 -4.757812 4.59375 -4.5 C 4.789062 -4.238281 4.890625 -3.898438 4.890625 -3.484375 L 4.890625 0 L 4.0625 0 L 4.0625 -3.390625 C 4.0625 -3.816406 3.929688 -4.117188 3.671875 -4.296875 C 3.421875 -4.472656 3.109375 -4.5625 2.734375 -4.5625 C 2.347656 -4.5625 2.039062 -4.484375 1.8125 -4.328125 C 1.59375 -4.171875 1.484375 -3.96875 1.484375 -3.71875 L 2.5 -3.203125 L 2.421875 -2.75 C 2.191406 -2.75 1.988281 -2.671875 1.8125 -2.515625 C 1.644531 -2.367188 1.5625 -2.128906 1.5625 -1.796875 L 1.5625 0 Z "/>
</symbol>
<symbol overflow="visible" id="glyph1-6">
<path style="stroke:none;" d="M 2.59375 0.09375 C 1.914062 0.09375 1.40625 -0.0820312 1.0625 -0.4375 C 0.726562 -0.789062 0.5625 -1.347656 0.5625 -2.109375 C 0.5625 -2.234375 0.566406 -2.367188 0.578125 -2.515625 C 0.585938 -2.671875 0.597656 -2.820312 0.609375 -2.96875 L 2.59375 -2.96875 L 2.59375 -2.296875 L 1.40625 -2.296875 L 1.40625 -2.109375 C 1.40625 -1.710938 1.445312 -1.398438 1.53125 -1.171875 C 1.625 -0.953125 1.753906 -0.796875 1.921875 -0.703125 C 2.097656 -0.617188 2.316406 -0.578125 2.578125 -0.578125 C 2.859375 -0.578125 3.101562 -0.628906 3.3125 -0.734375 C 3.519531 -0.847656 3.679688 -1.046875 3.796875 -1.328125 C 3.910156 -1.609375 3.96875 -2.015625 3.96875 -2.546875 C 3.96875 -3.242188 3.847656 -3.753906 3.609375 -4.078125 C 3.367188 -4.398438 2.960938 -4.5625 2.390625 -4.5625 C 2.085938 -4.5625 1.796875 -4.519531 1.515625 -4.4375 C 1.242188 -4.363281 0.984375 -4.253906 0.734375 -4.109375 L 0.734375 -4.890625 C 0.921875 -4.992188 1.164062 -5.082031 1.46875 -5.15625 C 1.78125 -5.226562 2.117188 -5.265625 2.484375 -5.265625 C 3.046875 -5.265625 3.492188 -5.148438 3.828125 -4.921875 C 4.171875 -4.703125 4.421875 -4.390625 4.578125 -3.984375 C 4.742188 -3.578125 4.828125 -3.097656 4.828125 -2.546875 C 4.828125 -1.992188 4.753906 -1.519531 4.609375 -1.125 C 4.460938 -0.726562 4.226562 -0.425781 3.90625 -0.21875 C 3.582031 -0.0078125 3.144531 0.09375 2.59375 0.09375 Z "/>
</symbol>
<symbol overflow="visible" id="glyph1-7">
<path style="stroke:none;" d="M 2.84375 0.09375 C 2.101562 0.09375 1.570312 -0.0703125 1.25 -0.40625 C 0.925781 -0.75 0.765625 -1.238281 0.765625 -1.875 L 0.765625 -5.171875 L 1.609375 -5.171875 L 1.609375 -1.859375 C 1.609375 -1.023438 2.019531 -0.609375 2.84375 -0.609375 C 3.269531 -0.609375 3.582031 -0.710938 3.78125 -0.921875 C 3.988281 -1.128906 4.09375 -1.441406 4.09375 -1.859375 L 4.09375 -5.171875 L 4.9375 -5.171875 L 4.9375 -1.875 C 4.9375 -1.238281 4.773438 -0.75 4.453125 -0.40625 C 4.128906 -0.0703125 3.59375 0.09375 2.84375 0.09375 Z "/>
</symbol>
<symbol overflow="visible" id="glyph1-8">
<path style="stroke:none;" d="M 1.9375 0.09375 C 1.769531 0.09375 1.601562 0.0625 1.4375 0 C 1.28125 -0.0507812 1.148438 -0.148438 1.046875 -0.296875 C 0.953125 -0.441406 0.90625 -0.640625 0.90625 -0.890625 L 0.90625 -5.171875 L 1.75 -5.171875 L 1.75 -1 C 1.75 -0.851562 1.78125 -0.75 1.84375 -0.6875 C 1.90625 -0.625 2.003906 -0.59375 2.140625 -0.59375 C 2.203125 -0.59375 2.265625 -0.597656 2.328125 -0.609375 C 2.390625 -0.617188 2.445312 -0.632812 2.5 -0.65625 L 2.609375 -0.046875 C 2.492188 0.00390625 2.378906 0.0390625 2.265625 0.0625 C 2.148438 0.0820312 2.039062 0.09375 1.9375 0.09375 Z "/>
</symbol>
<symbol overflow="visible" id="glyph1-9">
<path style="stroke:none;" d="M -2.984375 -5.84375 C -3.328125 -5.84375 -3.578125 -5.988281 -3.734375 -6.28125 L -4.046875 -5.875 C -4.410156 -5.875 -4.695312 -5.960938 -4.90625 -6.140625 C -5.113281 -6.328125 -5.21875 -6.585938 -5.21875 -6.921875 C -5.21875 -7.285156 -5.113281 -7.550781 -4.90625 -7.71875 C -4.695312 -7.894531 -4.453125 -7.984375 -4.171875 -7.984375 L -2.15625 -7.984375 L -2.15625 -7.421875 L -4.046875 -7.421875 C -4.191406 -7.421875 -4.3125 -7.378906 -4.40625 -7.296875 C -4.507812 -7.210938 -4.5625 -7.082031 -4.5625 -6.90625 C -4.5625 -6.769531 -4.523438 -6.65625 -4.453125 -6.5625 C -4.378906 -6.476562 -4.265625 -6.4375 -4.109375 -6.4375 L -3.734375 -6.90625 L -3.484375 -6.90625 C -3.472656 -6.570312 -3.347656 -6.40625 -3.109375 -6.40625 C -2.992188 -6.40625 -2.90625 -6.441406 -2.84375 -6.515625 C -2.78125 -6.585938 -2.75 -6.679688 -2.75 -6.796875 L -2.75 -6.90625 L -2.140625 -6.90625 L -2.140625 -6.78125 C -2.140625 -6.46875 -2.21875 -6.234375 -2.375 -6.078125 C -2.53125 -5.921875 -2.734375 -5.84375 -2.984375 -5.84375 Z "/>
</symbol>
<symbol overflow="visible" id="glyph1-10">
<path style="stroke:none;" d="M 2.546875 0.09375 C 1.992188 0.09375 1.554688 -0.0507812 1.234375 -0.34375 C 0.921875 -0.632812 0.765625 -1.09375 0.765625 -1.71875 L 0.765625 -5.171875 L 1.609375 -5.171875 L 1.609375 -1.765625 C 1.609375 -0.992188 1.984375 -0.609375 2.734375 -0.609375 C 3.171875 -0.609375 3.507812 -0.75 3.75 -1.03125 C 3.988281 -1.320312 4.109375 -1.707031 4.109375 -2.1875 L 4.109375 -5.171875 L 4.953125 -5.171875 L 4.953125 0 L 4.25 0 L 4.21875 -0.765625 L 4.171875 -0.765625 C 4.054688 -0.515625 3.859375 -0.304688 3.578125 -0.140625 C 3.296875 0.015625 2.953125 0.09375 2.546875 0.09375 Z "/>
</symbol>
<symbol overflow="visible" id="glyph1-11">
<path style="stroke:none;" d="M 1.796875 0.09375 C 1.554688 0.09375 1.320312 0.0664062 1.09375 0.015625 C 0.863281 -0.0351562 0.617188 -0.128906 0.359375 -0.265625 L 0.625 -0.90625 C 0.757812 -0.820312 0.914062 -0.75 1.09375 -0.6875 C 1.269531 -0.632812 1.472656 -0.609375 1.703125 -0.609375 C 2.171875 -0.609375 2.535156 -0.773438 2.796875 -1.109375 C 3.054688 -1.453125 3.1875 -1.953125 3.1875 -2.609375 C 3.1875 -3.242188 3.050781 -3.726562 2.78125 -4.0625 C 2.519531 -4.394531 2.113281 -4.5625 1.5625 -4.5625 C 1.351562 -4.5625 1.144531 -4.539062 0.9375 -4.5 C 0.726562 -4.457031 0.546875 -4.390625 0.390625 -4.296875 L 0.390625 -5.015625 C 0.578125 -5.109375 0.78125 -5.171875 1 -5.203125 C 1.21875 -5.242188 1.4375 -5.265625 1.65625 -5.265625 C 2.21875 -5.265625 2.675781 -5.148438 3.03125 -4.921875 C 3.382812 -4.703125 3.640625 -4.394531 3.796875 -4 C 3.960938 -3.601562 4.046875 -3.140625 4.046875 -2.609375 C 4.046875 -1.773438 3.859375 -1.113281 3.484375 -0.625 C 3.109375 -0.144531 2.546875 0.09375 1.796875 0.09375 Z "/>
</symbol>
<symbol overflow="visible" id="glyph1-12">
<path style="stroke:none;" d="M 1.609375 0 L 0 -5.171875 L 0.84375 -5.171875 L 2.25 -0.734375 L 2.359375 -0.734375 C 2.503906 -0.734375 2.648438 -0.765625 2.796875 -0.828125 C 2.941406 -0.898438 3.066406 -0.992188 3.171875 -1.109375 C 3.359375 -1.316406 3.492188 -1.578125 3.578125 -1.890625 C 3.671875 -2.210938 3.71875 -2.53125 3.71875 -2.84375 C 3.71875 -3.363281 3.597656 -3.769531 3.359375 -4.0625 C 3.128906 -4.363281 2.804688 -4.515625 2.390625 -4.515625 C 2.222656 -4.515625 2.078125 -4.492188 1.953125 -4.453125 L 1.75 -5.125 C 1.875 -5.164062 1.992188 -5.191406 2.109375 -5.203125 C 2.234375 -5.210938 2.34375 -5.21875 2.4375 -5.21875 C 3.050781 -5.21875 3.546875 -5.039062 3.921875 -4.6875 C 4.140625 -4.46875 4.300781 -4.195312 4.40625 -3.875 C 4.507812 -3.550781 4.5625 -3.195312 4.5625 -2.8125 C 4.5625 -2.320312 4.484375 -1.882812 4.328125 -1.5 C 4.179688 -1.125 3.992188 -0.820312 3.765625 -0.59375 C 3.578125 -0.414062 3.351562 -0.269531 3.09375 -0.15625 C 2.832031 -0.0507812 2.492188 0 2.078125 0 Z "/>
</symbol>
<symbol overflow="visible" id="glyph1-13">
<path style="stroke:none;" d="M 1.390625 0 L 1.390625 -2.296875 L 0.671875 -2.296875 L 0.671875 -2.96875 L 2.1875 -2.96875 L 2.1875 -0.671875 L 2.3125 -0.671875 C 2.738281 -0.671875 3.054688 -0.816406 3.265625 -1.109375 C 3.484375 -1.410156 3.59375 -1.910156 3.59375 -2.609375 C 3.59375 -3.304688 3.472656 -3.804688 3.234375 -4.109375 C 2.992188 -4.410156 2.582031 -4.5625 2 -4.5625 C 1.707031 -4.5625 1.421875 -4.519531 1.140625 -4.4375 C 0.867188 -4.363281 0.609375 -4.25 0.359375 -4.09375 L 0.359375 -4.875 C 0.546875 -4.988281 0.789062 -5.082031 1.09375 -5.15625 C 1.40625 -5.226562 1.742188 -5.265625 2.109375 -5.265625 C 2.679688 -5.265625 3.132812 -5.160156 3.46875 -4.953125 C 3.8125 -4.742188 4.054688 -4.4375 4.203125 -4.03125 C 4.359375 -3.632812 4.4375 -3.15625 4.4375 -2.59375 C 4.4375 -2.050781 4.363281 -1.582031 4.21875 -1.1875 C 4.070312 -0.800781 3.832031 -0.503906 3.5 -0.296875 C 3.175781 -0.0976562 2.738281 0 2.1875 0 Z "/>
</symbol>
</g>
</defs>
<g id="surface57">
<g style="fill:rgb(40%,73.333333%,41.568627%);fill-opacity:1;">
  <use xlink:href="#glyph0-1" x="30" y="30.020508"/>
</g>
<g style="fill:rgb(40%,73.333333%,41.568627%);fill-opacity:1;">
  <use xlink:href="#glyph1-1" x="38" y="30.020508"/>
  <use xlink:href="#glyph1-2" x="40" y="30.020508"/>
  <use xlink:href="#glyph1-3" x="46" y="30.020508"/>
  <use xlink:href="#glyph1-4" x="51" y="30.020508"/>
  <use xlink:href="#glyph1-5" x="54" y="30.020508"/>
  <use xlink:href="#glyph1-6" x="60" y="30.020508"/>
  <use xlink:href="#glyph1-7" x="65" y="30.020508"/>
  <use xlink:href="#glyph1-8" x="71" y="30.020508"/>
  <use xlink:href="#glyph1-2" x="74" y="30.020508"/>
  <use xlink:href="#glyph1-9" x="80" y="30.020508"/>
  <use xlink:href="#glyph1-10" x="80" y="30.020508"/>
  <use xlink:href="#glyph1-11" x="86" y="30.020508"/>
  <use xlink:href="#glyph1-12" x="91" y="30.020508"/>
  <use xlink:href="#glyph1-13" x="96" y="30.020508"/>
  <use xlink:href="#glyph1-3" x="101" y="30.020508"/>
</g>
</g>
</svg>
