<?xml version="1.0" encoding="UTF-8"?>
<svg xmlns="http://www.w3.org/2000/svg" xmlns:xlink="http://www.w3.org/1999/xlink" width="854pt" height="480pt" viewBox="0 0 854 480" version="1.1">
<defs>
<g>
<symbol overflow="visible" id="glyph0-0">
<path style="stroke:none;" d="M 1.046875 0 L 1.046875 -7.9375 L 5.609375 -7.9375 L 5.609375 0 Z M 1.609375 -0.5625 L 5.046875 -0.5625 L 5.046875 -7.359375 L 1.609375 -7.359375 Z "/>
</symbol>
<symbol overflow="visible" id="glyph0-1">
<path style="stroke:none;" d="M 0.9375 0 L 0.9375 -6.09375 L 1.625 -6.09375 L 1.796875 -5.125 L 1.84375 -5.125 C 1.96875 -5.457031 2.195312 -5.71875 2.53125 -5.90625 C 2.863281 -6.101562 3.269531 -6.203125 3.75 -6.203125 C 4.40625 -6.203125 4.921875 -6.03125 5.296875 -5.6875 C 5.671875 -5.34375 5.859375 -4.800781 5.859375 -4.0625 L 5.859375 0 L 4.875 0 L 4.875 -4.015625 C 4.875 -4.910156 4.4375 -5.359375 3.5625 -5.359375 C 3.207031 -5.359375 2.90625 -5.273438 2.65625 -5.109375 C 2.414062 -4.953125 2.234375 -4.734375 2.109375 -4.453125 C 1.984375 -4.179688 1.921875 -3.867188 1.921875 -3.515625 L 1.921875 0 Z "/>
</symbol>
<symbol overflow="visible" id="glyph0-2">
<path style="stroke:none;" d="M -1.78125 -6.78125 C -2.144531 -6.78125 -2.4375 -6.867188 -2.65625 -7.046875 C -2.875 -7.222656 -2.984375 -7.46875 -2.984375 -7.78125 C -2.984375 -8.113281 -2.875 -8.363281 -2.65625 -8.53125 C -2.4375 -8.695312 -2.144531 -8.78125 -1.78125 -8.78125 C -1.40625 -8.78125 -1.109375 -8.695312 -0.890625 -8.53125 C -0.671875 -8.363281 -0.5625 -8.113281 -0.5625 -7.78125 C -0.5625 -7.46875 -0.671875 -7.222656 -0.890625 -7.046875 C -1.109375 -6.867188 -1.40625 -6.78125 -1.78125 -6.78125 Z M -1.78125 -7.3125 C -1.601562 -7.3125 -1.46875 -7.351562 -1.375 -7.4375 C -1.28125 -7.53125 -1.234375 -7.644531 -1.234375 -7.78125 C -1.234375 -7.9375 -1.28125 -8.054688 -1.375 -8.140625 C -1.46875 -8.222656 -1.601562 -8.265625 -1.78125 -8.265625 C -1.945312 -8.265625 -2.078125 -8.222656 -2.171875 -8.140625 C -2.265625 -8.054688 -2.3125 -7.9375 -2.3125 -7.78125 C -2.3125 -7.644531 -2.265625 -7.53125 -2.171875 -7.4375 C -2.078125 -7.351562 -1.945312 -7.3125 -1.78125 -7.3125 Z "/>
</symbol>
<symbol overflow="visible" id="glyph0-3">
<path style="stroke:none;" d="M 2.625 0 L 2.625 -4.328125 C 2.625 -4.679688 2.539062 -4.941406 2.375 -5.109375 C 2.207031 -5.285156 1.925781 -5.375 1.53125 -5.375 C 1.269531 -5.375 1.019531 -5.335938 0.78125 -5.265625 C 0.550781 -5.203125 0.328125 -5.109375 0.109375 -4.984375 L 0.109375 -5.859375 C 0.253906 -5.941406 0.460938 -6.019531 0.734375 -6.09375 C 1.015625 -6.164062 1.34375 -6.203125 1.71875 -6.203125 C 2.300781 -6.203125 2.757812 -6.070312 3.09375 -5.8125 C 3.4375 -5.550781 3.609375 -5.101562 3.609375 -4.46875 L 3.609375 0 Z "/>
</symbol>
<symbol overflow="visible" id="glyph0-4">
<path style="stroke:none;" d="M 2.171875 0.109375 C 1.960938 0.109375 1.765625 0.0703125 1.578125 0 C 1.398438 -0.0625 1.25 -0.175781 1.125 -0.34375 C 1.007812 -0.507812 0.953125 -0.75 0.953125 -1.0625 L 0.953125 -5.40625 C 0.953125 -5.601562 0.96875 -5.765625 1 -5.890625 C 1.039062 -6.023438 1.101562 -6.15625 1.1875 -6.28125 C 1.28125 -6.414062 1.40625 -6.578125 1.5625 -6.765625 C 1.738281 -6.992188 1.867188 -7.179688 1.953125 -7.328125 C 2.046875 -7.472656 2.09375 -7.640625 2.09375 -7.828125 C 2.09375 -8.253906 1.832031 -8.46875 1.3125 -8.46875 C 1.082031 -8.46875 0.875 -8.429688 0.6875 -8.359375 C 0.5 -8.296875 0.34375 -8.234375 0.21875 -8.171875 L 0.21875 -9.015625 C 0.3125 -9.066406 0.460938 -9.117188 0.671875 -9.171875 C 0.890625 -9.234375 1.144531 -9.265625 1.4375 -9.265625 C 1.925781 -9.265625 2.316406 -9.15625 2.609375 -8.9375 C 2.910156 -8.71875 3.0625 -8.382812 3.0625 -7.9375 C 3.0625 -7.632812 3.003906 -7.375 2.890625 -7.15625 C 2.785156 -6.9375 2.660156 -6.734375 2.515625 -6.546875 C 2.390625 -6.390625 2.28125 -6.253906 2.1875 -6.140625 C 2.101562 -6.035156 2.039062 -5.925781 2 -5.8125 C 1.957031 -5.707031 1.9375 -5.5625 1.9375 -5.375 L 1.9375 -1.171875 C 1.9375 -1.003906 1.972656 -0.882812 2.046875 -0.8125 C 2.128906 -0.738281 2.25 -0.703125 2.40625 -0.703125 C 2.476562 -0.703125 2.550781 -0.707031 2.625 -0.71875 C 2.707031 -0.738281 2.773438 -0.757812 2.828125 -0.78125 L 2.96875 -0.0625 C 2.820312 0.0078125 2.679688 0.0546875 2.546875 0.078125 C 2.421875 0.0976562 2.296875 0.109375 2.171875 0.109375 Z "/>
</symbol>
<symbol overflow="visible" id="glyph0-5">
<path style="stroke:none;" d="M 0.984375 0 L 0.984375 -6.09375 L 1.984375 -6.09375 L 1.984375 -3.453125 L 2.015625 -3.453125 L 4.546875 -6.09375 L 5.703125 -6.09375 L 5.703125 -6.046875 L 3.90625 -4.25 C 4.507812 -4.195312 4.96875 -3.984375 5.28125 -3.609375 C 5.59375 -3.242188 5.75 -2.765625 5.75 -2.171875 L 5.75 0 L 4.765625 0 L 4.765625 -2.140625 C 4.765625 -2.554688 4.644531 -2.882812 4.40625 -3.125 C 4.164062 -3.375 3.765625 -3.507812 3.203125 -3.53125 L 1.984375 -2.28125 L 1.984375 0 Z "/>
</symbol>
<symbol overflow="visible" id="glyph0-6">
<path style="stroke:none;" d="M -4.09375 -7.046875 L -4.09375 -7.546875 C -3.9375 -7.578125 -3.78125 -7.617188 -3.625 -7.671875 C -3.476562 -7.722656 -3.351562 -7.796875 -3.25 -7.890625 C -3.144531 -7.984375 -3.09375 -8.097656 -3.09375 -8.234375 C -3.09375 -8.316406 -3.117188 -8.390625 -3.171875 -8.453125 C -3.222656 -8.515625 -3.3125 -8.546875 -3.4375 -8.546875 C -3.507812 -8.546875 -3.582031 -8.53125 -3.65625 -8.5 C -3.738281 -8.476562 -3.804688 -8.457031 -3.859375 -8.4375 L -4.09375 -9.046875 C -3.9375 -9.160156 -3.769531 -9.234375 -3.59375 -9.265625 C -3.414062 -9.304688 -3.269531 -9.328125 -3.15625 -9.328125 C -2.851562 -9.328125 -2.617188 -9.242188 -2.453125 -9.078125 C -2.285156 -8.921875 -2.203125 -8.71875 -2.203125 -8.46875 C -2.203125 -8.34375 -2.222656 -8.222656 -2.265625 -8.109375 C -2.316406 -8.003906 -2.375 -7.910156 -2.4375 -7.828125 L -0.640625 -7.828125 L -0.640625 -7.046875 Z "/>
</symbol>
<symbol overflow="visible" id="glyph0-7">
<path style="stroke:none;" d="M 2.28125 0.109375 C 2.082031 0.109375 1.890625 0.0703125 1.703125 0 C 1.515625 -0.0625 1.359375 -0.175781 1.234375 -0.34375 C 1.117188 -0.507812 1.0625 -0.75 1.0625 -1.0625 L 1.0625 -6.09375 L 2.0625 -6.09375 L 2.0625 -1.171875 C 2.0625 -1.003906 2.097656 -0.882812 2.171875 -0.8125 C 2.242188 -0.738281 2.359375 -0.703125 2.515625 -0.703125 C 2.585938 -0.703125 2.660156 -0.707031 2.734375 -0.71875 C 2.804688 -0.738281 2.875 -0.757812 2.9375 -0.78125 L 3.078125 -0.0625 C 2.929688 0.0078125 2.789062 0.0546875 2.65625 0.078125 C 2.53125 0.0976562 2.40625 0.109375 2.28125 0.109375 Z "/>
</symbol>
<symbol overflow="visible" id="glyph0-8">
<path style="stroke:none;" d="M 3.34375 0.109375 C 2.46875 0.109375 1.84375 -0.0859375 1.46875 -0.484375 C 1.09375 -0.890625 0.90625 -1.460938 0.90625 -2.203125 L 0.90625 -6.09375 L 1.890625 -6.09375 L 1.890625 -2.1875 C 1.890625 -1.207031 2.375 -0.71875 3.34375 -0.71875 C 3.84375 -0.71875 4.210938 -0.835938 4.453125 -1.078125 C 4.703125 -1.316406 4.828125 -1.6875 4.828125 -2.1875 L 4.828125 -8.28125 L 5.8125 -8.28125 L 5.8125 -2.203125 C 5.8125 -1.460938 5.617188 -0.890625 5.234375 -0.484375 C 4.859375 -0.0859375 4.226562 0.109375 3.34375 0.109375 Z "/>
</symbol>
<symbol overflow="visible" id="glyph0-9">
<path style="stroke:none;" d="M -3.515625 -6.890625 C -3.921875 -6.890625 -4.210938 -7.0625 -4.390625 -7.40625 L -4.765625 -6.921875 C -5.191406 -6.921875 -5.523438 -7.023438 -5.765625 -7.234375 C -6.015625 -7.441406 -6.140625 -7.75 -6.140625 -8.15625 C -6.140625 -8.570312 -6.015625 -8.882812 -5.765625 -9.09375 C -5.523438 -9.300781 -5.238281 -9.40625 -4.90625 -9.40625 L -2.53125 -9.40625 L -2.53125 -8.734375 L -4.765625 -8.734375 C -4.929688 -8.734375 -5.070312 -8.679688 -5.1875 -8.578125 C -5.300781 -8.484375 -5.359375 -8.332031 -5.359375 -8.125 C -5.359375 -7.96875 -5.316406 -7.835938 -5.234375 -7.734375 C -5.160156 -7.628906 -5.023438 -7.578125 -4.828125 -7.578125 L -4.390625 -8.125 L -4.109375 -8.125 C -4.097656 -7.738281 -3.945312 -7.546875 -3.65625 -7.546875 C -3.53125 -7.546875 -3.425781 -7.585938 -3.34375 -7.671875 C -3.269531 -7.753906 -3.234375 -7.863281 -3.234375 -8 L -3.234375 -8.125 L -2.515625 -8.125 L -2.515625 -7.96875 C -2.515625 -7.613281 -2.601562 -7.34375 -2.78125 -7.15625 C -2.96875 -6.976562 -3.210938 -6.890625 -3.515625 -6.890625 Z "/>
</symbol>
<symbol overflow="visible" id="glyph0-10">
<path style="stroke:none;" d="M 3 0.109375 C 2.34375 0.109375 1.828125 -0.0546875 1.453125 -0.390625 C 1.085938 -0.734375 0.90625 -1.273438 0.90625 -2.015625 L 0.90625 -6.09375 L 1.890625 -6.09375 L 1.890625 -2.078125 C 1.890625 -1.171875 2.328125 -0.71875 3.203125 -0.71875 C 3.722656 -0.71875 4.125 -0.882812 4.40625 -1.21875 C 4.695312 -1.550781 4.84375 -2 4.84375 -2.5625 L 4.84375 -6.09375 L 5.828125 -6.09375 L 5.828125 0 L 5.015625 0 L 4.96875 -0.90625 L 4.90625 -0.90625 C 4.769531 -0.601562 4.535156 -0.359375 4.203125 -0.171875 C 3.878906 0.015625 3.476562 0.109375 3 0.109375 Z "/>
</symbol>
<symbol overflow="visible" id="glyph0-11">
<path style="stroke:none;" d="M 3.0625 0.109375 C 2.351562 0.109375 1.804688 -0.0546875 1.421875 -0.390625 C 1.046875 -0.734375 0.859375 -1.238281 0.859375 -1.90625 L 0.859375 -2.59375 C 0.859375 -2.957031 0.910156 -3.242188 1.015625 -3.453125 C 1.117188 -3.671875 1.226562 -3.859375 1.34375 -4.015625 C 1.46875 -4.191406 1.578125 -4.34375 1.671875 -4.46875 C 1.765625 -4.59375 1.8125 -4.742188 1.8125 -4.921875 C 1.8125 -5.078125 1.769531 -5.1875 1.6875 -5.25 C 1.613281 -5.320312 1.519531 -5.359375 1.40625 -5.359375 C 1.3125 -5.359375 1.210938 -5.34375 1.109375 -5.3125 C 1.015625 -5.28125 0.921875 -5.242188 0.828125 -5.203125 L 0.59375 -5.90625 C 0.726562 -6 0.894531 -6.0625 1.09375 -6.09375 C 1.289062 -6.132812 1.460938 -6.15625 1.609375 -6.15625 C 2.023438 -6.15625 2.316406 -6.046875 2.484375 -5.828125 C 2.660156 -5.617188 2.75 -5.351562 2.75 -5.03125 C 2.75 -4.757812 2.703125 -4.535156 2.609375 -4.359375 C 2.515625 -4.179688 2.40625 -4.003906 2.28125 -3.828125 C 2.15625 -3.648438 2.050781 -3.472656 1.96875 -3.296875 C 1.882812 -3.128906 1.84375 -2.910156 1.84375 -2.640625 L 1.84375 -1.984375 C 1.84375 -1.640625 1.894531 -1.375 2 -1.1875 C 2.113281 -1 2.265625 -0.867188 2.453125 -0.796875 C 2.640625 -0.734375 2.84375 -0.703125 3.0625 -0.703125 C 3.8125 -0.703125 4.1875 -1.054688 4.1875 -1.765625 L 4.1875 -3.328125 C 4.1875 -3.597656 4.125 -3.804688 4 -3.953125 C 3.875 -4.097656 3.671875 -4.171875 3.390625 -4.171875 L 3.34375 -4.171875 L 3.34375 -4.796875 L 3.40625 -4.796875 C 3.707031 -4.796875 3.921875 -4.863281 4.046875 -5 C 4.171875 -5.144531 4.242188 -5.316406 4.265625 -5.515625 C 4.296875 -5.722656 4.3125 -5.914062 4.3125 -6.09375 L 5.296875 -6.09375 C 5.296875 -5.695312 5.25 -5.359375 5.15625 -5.078125 C 5.0625 -4.804688 4.84375 -4.609375 4.5 -4.484375 L 4.5 -4.4375 C 4.707031 -4.382812 4.859375 -4.296875 4.953125 -4.171875 C 5.046875 -4.054688 5.101562 -3.921875 5.125 -3.765625 C 5.15625 -3.617188 5.171875 -3.472656 5.171875 -3.328125 L 5.171875 -1.703125 C 5.171875 -1.140625 4.992188 -0.695312 4.640625 -0.375 C 4.285156 -0.0507812 3.757812 0.109375 3.0625 0.109375 Z "/>
</symbol>
<symbol overflow="visible" id="glyph0-12">
<path style="stroke:none;" d="M -5.703125 -7.046875 L -5.703125 -7.484375 L -4.90625 -7.84375 L -0.984375 -7.84375 L -0.984375 -7.046875 Z "/>
</symbol>
<symbol overflow="visible" id="glyph0-13">
<path style="stroke:none;" d="M 1.90625 0 L 0 -6.09375 L 1 -6.09375 L 2.640625 -0.859375 L 2.78125 -0.859375 C 2.957031 -0.859375 3.128906 -0.898438 3.296875 -0.984375 C 3.472656 -1.066406 3.617188 -1.175781 3.734375 -1.3125 C 3.953125 -1.550781 4.113281 -1.859375 4.21875 -2.234375 C 4.320312 -2.609375 4.375 -2.976562 4.375 -3.34375 C 4.375 -3.957031 4.234375 -4.441406 3.953125 -4.796875 C 3.679688 -5.148438 3.300781 -5.328125 2.8125 -5.328125 C 2.613281 -5.328125 2.441406 -5.300781 2.296875 -5.25 L 2.0625 -6.03125 C 2.207031 -6.070312 2.347656 -6.097656 2.484375 -6.109375 C 2.628906 -6.128906 2.753906 -6.140625 2.859375 -6.140625 C 3.585938 -6.140625 4.171875 -5.929688 4.609375 -5.515625 C 4.867188 -5.253906 5.054688 -4.9375 5.171875 -4.5625 C 5.296875 -4.1875 5.359375 -3.769531 5.359375 -3.3125 C 5.359375 -2.726562 5.269531 -2.210938 5.09375 -1.765625 C 4.914062 -1.316406 4.695312 -0.960938 4.4375 -0.703125 C 4.21875 -0.484375 3.953125 -0.3125 3.640625 -0.1875 C 3.328125 -0.0625 2.929688 0 2.453125 0 Z "/>
</symbol>
<symbol overflow="visible" id="glyph0-14">
<path style="stroke:none;" d="M 2.5625 0.109375 C 1.90625 0.109375 1.40625 -0.0351562 1.0625 -0.328125 C 0.71875 -0.628906 0.546875 -1.066406 0.546875 -1.640625 C 0.546875 -2.253906 0.769531 -2.726562 1.21875 -3.0625 C 1.664062 -3.394531 2.394531 -3.585938 3.40625 -3.640625 L 4.46875 -3.703125 L 4.46875 -4.0625 C 4.46875 -4.539062 4.359375 -4.878906 4.140625 -5.078125 C 3.921875 -5.285156 3.554688 -5.390625 3.046875 -5.390625 C 2.671875 -5.390625 2.316406 -5.335938 1.984375 -5.234375 C 1.648438 -5.140625 1.328125 -5.003906 1.015625 -4.828125 L 1.015625 -5.75 C 1.234375 -5.851562 1.523438 -5.953125 1.890625 -6.046875 C 2.253906 -6.148438 2.671875 -6.203125 3.140625 -6.203125 C 3.429688 -6.203125 3.691406 -6.175781 3.921875 -6.125 C 4.160156 -6.070312 4.359375 -5.984375 4.515625 -5.859375 C 4.640625 -5.910156 4.742188 -5.988281 4.828125 -6.09375 C 4.921875 -6.195312 4.96875 -6.328125 4.96875 -6.484375 L 5.9375 -6.484375 C 5.9375 -6.203125 5.851562 -5.960938 5.6875 -5.765625 C 5.53125 -5.578125 5.332031 -5.429688 5.09375 -5.328125 C 5.21875 -5.191406 5.304688 -5.019531 5.359375 -4.8125 C 5.410156 -4.613281 5.4375 -4.378906 5.4375 -4.109375 L 5.4375 0 L 4.46875 0 L 4.46875 -2.890625 L 3.53125 -2.828125 C 2.78125 -2.773438 2.257812 -2.65625 1.96875 -2.46875 C 1.6875 -2.28125 1.546875 -2.007812 1.546875 -1.65625 C 1.546875 -1.320312 1.648438 -1.078125 1.859375 -0.921875 C 2.066406 -0.765625 2.363281 -0.6875 2.75 -0.6875 C 2.988281 -0.6875 3.203125 -0.71875 3.390625 -0.78125 L 3.546875 -0.046875 C 3.398438 0.00390625 3.242188 0.0390625 3.078125 0.0625 C 2.910156 0.09375 2.738281 0.109375 2.5625 0.109375 Z "/>
</symbol>
<symbol overflow="visible" id="glyph0-15">
<path style="stroke:none;" d=""/>
</symbol>
<symbol overflow="visible" id="glyph0-16">
<path style="stroke:none;" d="M 3.828125 0.109375 C 3.359375 0.109375 2.953125 0.015625 2.609375 -0.171875 C 2.265625 -0.359375 2.03125 -0.625 1.90625 -0.96875 L 1.859375 -0.96875 L 1.796875 0 L 0.984375 0 L 0.984375 -6.09375 L 1.984375 -6.09375 L 1.984375 -2.5625 C 1.984375 -2 2.125 -1.550781 2.40625 -1.21875 C 2.695312 -0.882812 3.101562 -0.71875 3.625 -0.71875 C 4.5 -0.71875 4.9375 -1.171875 4.9375 -2.078125 L 4.9375 -6.09375 L 5.921875 -6.09375 L 5.921875 -2.015625 C 5.921875 -1.273438 5.738281 -0.734375 5.375 -0.390625 C 5.007812 -0.0546875 4.492188 0.109375 3.828125 0.109375 Z "/>
</symbol>
<symbol overflow="visible" id="glyph0-17">
<path style="stroke:none;" d="M -1.875 2.90625 L -1.875 1.71875 C -1.875 1.53125 -1.957031 1.4375 -2.125 1.4375 C -2.15625 1.4375 -2.191406 1.441406 -2.234375 1.453125 C -2.273438 1.460938 -2.316406 1.472656 -2.359375 1.484375 L -2.4375 0.828125 C -2.320312 0.785156 -2.195312 0.753906 -2.0625 0.734375 C -1.9375 0.722656 -1.832031 0.71875 -1.75 0.71875 C -1.488281 0.71875 -1.296875 0.773438 -1.171875 0.890625 C -1.054688 1.015625 -1 1.1875 -1 1.40625 L -1 2.90625 Z "/>
</symbol>
<symbol overflow="visible" id="glyph0-18">
<path style="stroke:none;" d="M 2.5625 0.109375 C 1.90625 0.109375 1.40625 -0.0351562 1.0625 -0.328125 C 0.71875 -0.628906 0.546875 -1.066406 0.546875 -1.640625 C 0.546875 -2.253906 0.769531 -2.726562 1.21875 -3.0625 C 1.664062 -3.394531 2.394531 -3.585938 3.40625 -3.640625 L 4.46875 -3.703125 L 4.46875 -4.0625 C 4.46875 -4.539062 4.359375 -4.878906 4.140625 -5.078125 C 3.921875 -5.285156 3.554688 -5.390625 3.046875 -5.390625 C 2.671875 -5.390625 2.316406 -5.335938 1.984375 -5.234375 C 1.648438 -5.140625 1.328125 -5.003906 1.015625 -4.828125 L 1.015625 -5.75 C 1.234375 -5.851562 1.523438 -5.953125 1.890625 -6.046875 C 2.253906 -6.148438 2.671875 -6.203125 3.140625 -6.203125 C 3.910156 -6.203125 4.484375 -6.03125 4.859375 -5.6875 C 5.242188 -5.351562 5.4375 -4.828125 5.4375 -4.109375 L 5.4375 0 L 4.46875 0 L 4.46875 -2.890625 L 3.53125 -2.828125 C 2.78125 -2.773438 2.257812 -2.65625 1.96875 -2.46875 C 1.6875 -2.28125 1.546875 -2.007812 1.546875 -1.65625 C 1.546875 -1.320312 1.648438 -1.078125 1.859375 -0.921875 C 2.066406 -0.765625 2.363281 -0.6875 2.75 -0.6875 C 2.988281 -0.6875 3.203125 -0.71875 3.390625 -0.78125 L 3.546875 -0.046875 C 3.398438 0.00390625 3.242188 0.0390625 3.078125 0.0625 C 2.910156 0.09375 2.738281 0.109375 2.5625 0.109375 Z "/>
</symbol>
<symbol overflow="visible" id="glyph0-19">
<path style="stroke:none;" d="M -2.140625 -6.890625 C -2.566406 -6.890625 -2.859375 -7.0625 -3.015625 -7.40625 L -3.578125 -6.921875 C -3.992188 -6.921875 -4.328125 -7.023438 -4.578125 -7.234375 C -4.835938 -7.441406 -4.96875 -7.75 -4.96875 -8.15625 C -4.96875 -8.570312 -4.835938 -8.882812 -4.578125 -9.09375 C -4.328125 -9.300781 -4.035156 -9.40625 -3.703125 -9.40625 L -1.109375 -9.40625 L -1.109375 -8.734375 L -3.5625 -8.734375 C -3.726562 -8.734375 -3.867188 -8.679688 -3.984375 -8.578125 C -4.109375 -8.484375 -4.171875 -8.328125 -4.171875 -8.109375 C -4.171875 -7.953125 -4.128906 -7.820312 -4.046875 -7.71875 C -3.972656 -7.625 -3.835938 -7.578125 -3.640625 -7.578125 L -3.015625 -8.125 L -2.8125 -8.125 C -2.78125 -7.96875 -2.71875 -7.832031 -2.625 -7.71875 C -2.53125 -7.601562 -2.40625 -7.546875 -2.25 -7.546875 C -2.101562 -7.546875 -1.992188 -7.582031 -1.921875 -7.65625 C -1.859375 -7.738281 -1.828125 -7.847656 -1.828125 -7.984375 L -1.828125 -8.125 L -1.09375 -8.125 L -1.09375 -7.96875 C -1.09375 -7.613281 -1.1875 -7.34375 -1.375 -7.15625 C -1.570312 -6.976562 -1.828125 -6.890625 -2.140625 -6.890625 Z "/>
</symbol>
<symbol overflow="visible" id="glyph0-20">
<path style="stroke:none;" d="M 0.84375 0 L 0.84375 -2.109375 C 0.84375 -2.578125 0.945312 -2.914062 1.15625 -3.125 C 1.363281 -3.332031 1.625 -3.476562 1.9375 -3.5625 L 1.953125 -3.59375 L 0.734375 -4.0625 L 0.734375 -4.4375 C 0.734375 -4.738281 0.832031 -5.023438 1.03125 -5.296875 C 1.226562 -5.566406 1.515625 -5.785156 1.890625 -5.953125 C 2.265625 -6.117188 2.710938 -6.203125 3.234375 -6.203125 C 3.679688 -6.203125 4.097656 -6.128906 4.484375 -5.984375 C 4.867188 -5.835938 5.175781 -5.609375 5.40625 -5.296875 C 5.644531 -4.992188 5.765625 -4.59375 5.765625 -4.09375 L 5.765625 0 L 4.78125 0 L 4.78125 -4 C 4.78125 -4.5 4.628906 -4.851562 4.328125 -5.0625 C 4.023438 -5.269531 3.65625 -5.375 3.21875 -5.375 C 2.769531 -5.375 2.410156 -5.28125 2.140625 -5.09375 C 1.878906 -4.90625 1.75 -4.664062 1.75 -4.375 L 2.9375 -3.78125 L 2.859375 -3.25 C 2.578125 -3.25 2.332031 -3.15625 2.125 -2.96875 C 1.925781 -2.789062 1.828125 -2.503906 1.828125 -2.109375 L 1.828125 0 Z "/>
</symbol>
<symbol overflow="visible" id="glyph1-0">
<path style="stroke:none;" d="M 1.390625 0 L 1.390625 -6.9375 L 6.9375 -6.9375 L 6.9375 0 Z M 1.5625 -0.171875 L 6.765625 -0.171875 L 6.765625 -6.765625 L 1.5625 -6.765625 Z "/>
</symbol>
<symbol overflow="visible" id="glyph1-1">
<path style="stroke:none;" d="M 2.59375 2.34375 C 2.007812 1.582031 1.539062 0.757812 1.1875 -0.125 C 0.84375 -1.007812 0.671875 -1.925781 0.671875 -2.875 C 0.671875 -3.414062 0.71875 -3.9375 0.8125 -4.4375 C 0.90625 -4.9375 1.046875 -5.398438 1.234375 -5.828125 C 1.421875 -6.253906 1.625 -6.644531 1.84375 -7 C 2.0625 -7.351562 2.3125 -7.71875 2.59375 -8.09375 L 3.296875 -8.09375 C 3.078125 -7.71875 2.910156 -7.425781 2.796875 -7.21875 C 2.679688 -7.007812 2.550781 -6.753906 2.40625 -6.453125 C 2.257812 -6.148438 2.144531 -5.882812 2.0625 -5.65625 C 1.988281 -5.4375 1.914062 -5.175781 1.84375 -4.875 C 1.769531 -4.570312 1.71875 -4.257812 1.6875 -3.9375 C 1.664062 -3.613281 1.65625 -3.257812 1.65625 -2.875 C 1.65625 -1.164062 2.203125 0.570312 3.296875 2.34375 Z "/>
</symbol>
<symbol overflow="visible" id="glyph1-2">
<path style="stroke:none;" d="M 1.09375 2.34375 L 0.40625 2.34375 C 1.5 0.570312 2.046875 -1.164062 2.046875 -2.875 C 2.046875 -3.257812 2.03125 -3.613281 2 -3.9375 C 1.976562 -4.257812 1.925781 -4.570312 1.84375 -4.875 C 1.769531 -5.175781 1.695312 -5.4375 1.625 -5.65625 C 1.550781 -5.882812 1.441406 -6.148438 1.296875 -6.453125 C 1.148438 -6.753906 1.019531 -7.007812 0.90625 -7.21875 C 0.789062 -7.425781 0.625 -7.71875 0.40625 -8.09375 L 1.09375 -8.09375 C 1.382812 -7.71875 1.640625 -7.351562 1.859375 -7 C 2.078125 -6.644531 2.273438 -6.253906 2.453125 -5.828125 C 2.640625 -5.398438 2.78125 -4.9375 2.875 -4.4375 C 2.976562 -3.9375 3.03125 -3.414062 3.03125 -2.875 C 3.03125 -1.925781 2.851562 -1.007812 2.5 -0.125 C 2.15625 0.757812 1.6875 1.582031 1.09375 2.34375 Z "/>
</symbol>
</g>
</defs>
<g id="surface197">
<g style="fill:rgb(100%,83.529412%,30.980392%);fill-opacity:1;">
  <use xlink:href="#glyph0-1" x="30" y="32.764648"/>
  <use xlink:href="#glyph0-2" x="37" y="32.764648"/>
  <use xlink:href="#glyph0-3" x="37" y="32.764648"/>
  <use xlink:href="#glyph0-4" x="42" y="32.764648"/>
  <use xlink:href="#glyph0-5" x="45" y="32.764648"/>
  <use xlink:href="#glyph0-6" x="52" y="32.764648"/>
  <use xlink:href="#glyph0-7" x="52" y="32.764648"/>
  <use xlink:href="#glyph0-8" x="55" y="32.764648"/>
  <use xlink:href="#glyph0-9" x="62" y="32.764648"/>
  <use xlink:href="#glyph0-10" x="62" y="32.764648"/>
  <use xlink:href="#glyph0-7" x="69" y="32.764648"/>
  <use xlink:href="#glyph0-11" x="72" y="32.764648"/>
  <use xlink:href="#glyph0-12" x="78" y="32.764648"/>
  <use xlink:href="#glyph0-13" x="78" y="32.764648"/>
  <use xlink:href="#glyph0-7" x="84" y="32.764648"/>
  <use xlink:href="#glyph0-14" x="87" y="32.764648"/>
  <use xlink:href="#glyph0-6" x="93" y="32.764648"/>
  <use xlink:href="#glyph0-10" x="93" y="32.764648"/>
  <use xlink:href="#glyph0-15" x="100" y="32.764648"/>
</g>
<g style="fill:rgb(100%,83.529412%,30.980392%);fill-opacity:1;">
  <use xlink:href="#glyph1-1" x="103" y="32.764648"/>
</g>
<g style="fill:rgb(100%,83.529412%,30.980392%);fill-opacity:1;">
  <use xlink:href="#glyph0-16" x="107" y="32.764648"/>
  <use xlink:href="#glyph0-17" x="114" y="32.764648"/>
  <use xlink:href="#glyph0-16" x="114" y="32.764648"/>
  <use xlink:href="#glyph0-7" x="121" y="32.764648"/>
  <use xlink:href="#glyph0-18" x="124" y="32.764648"/>
  <use xlink:href="#glyph0-19" x="130" y="32.764648"/>
  <use xlink:href="#glyph0-20" x="130" y="32.764648"/>
</g>
<g style="fill:rgb(100%,83.529412%,30.980392%);fill-opacity:1;">
  <use xlink:href="#glyph1-2" x="137" y="32.764648"/>
</g>
</g>
</svg>
