<?xml version="1.0" encoding="UTF-8"?>
<svg xmlns="http://www.w3.org/2000/svg" xmlns:xlink="http://www.w3.org/1999/xlink" width="854pt" height="480pt" viewBox="0 0 854 480" version="1.1">
<defs>
<g>
<symbol overflow="visible" id="glyph0-0">
<path style="stroke:none;" d="M 0.78125 2.75 L 0.78125 -10.96875 L 8.5625 -10.96875 L 8.5625 2.75 Z M 1.65625 1.890625 L 7.6875 1.890625 L 7.6875 -10.09375 L 1.65625 -10.09375 Z "/>
</symbol>
<symbol overflow="visible" id="glyph0-1">
<path style="stroke:none;" d="M 10.015625 -10.46875 L 10.015625 -8.859375 C 9.503906 -9.335938 8.957031 -9.691406 8.375 -9.921875 C 7.789062 -10.160156 7.164062 -10.28125 6.5 -10.28125 C 5.207031 -10.28125 4.21875 -9.882812 3.53125 -9.09375 C 2.84375 -8.300781 2.5 -7.15625 2.5 -5.65625 C 2.5 -4.164062 2.84375 -3.023438 3.53125 -2.234375 C 4.21875 -1.441406 5.207031 -1.046875 6.5 -1.046875 C 7.164062 -1.046875 7.789062 -1.160156 8.375 -1.390625 C 8.957031 -1.628906 9.503906 -1.992188 10.015625 -2.484375 L 10.015625 -0.875 C 9.484375 -0.507812 8.914062 -0.234375 8.3125 -0.046875 C 7.71875 0.128906 7.082031 0.21875 6.40625 0.21875 C 4.695312 0.21875 3.347656 -0.304688 2.359375 -1.359375 C 1.367188 -2.410156 0.875 -3.84375 0.875 -5.65625 C 0.875 -7.476562 1.367188 -8.914062 2.359375 -9.96875 C 3.347656 -11.019531 4.695312 -11.546875 6.40625 -11.546875 C 7.09375 -11.546875 7.734375 -11.457031 8.328125 -11.28125 C 8.929688 -11.101562 9.492188 -10.832031 10.015625 -10.46875 Z "/>
</symbol>
<symbol overflow="visible" id="glyph0-2">
<path style="stroke:none;" d="M 1.53125 -11.34375 L 3.0625 -11.34375 L 3.0625 -6.546875 L 8.15625 -11.34375 L 10.125 -11.34375 L 4.5 -6.0625 L 10.53125 0 L 8.515625 0 L 3.0625 -5.46875 L 3.0625 0 L 1.53125 0 Z "/>
</symbol>
<symbol overflow="visible" id="glyph0-3">
<path style="stroke:none;" d="M 5.875 -10 L 2 -3.953125 L 5.875 -3.953125 Z M 5.484375 -11.34375 L 7.40625 -11.34375 L 7.40625 -3.953125 L 9.03125 -3.953125 L 9.03125 -2.671875 L 7.40625 -2.671875 L 7.40625 0 L 5.875 0 L 5.875 -2.671875 L 0.765625 -2.671875 L 0.765625 -4.15625 Z "/>
</symbol>
<symbol overflow="visible" id="glyph0-4">
<path style="stroke:none;" d="M 4.953125 -10.328125 C 4.160156 -10.328125 3.5625 -9.9375 3.15625 -9.15625 C 2.757812 -8.382812 2.5625 -7.21875 2.5625 -5.65625 C 2.5625 -4.101562 2.757812 -2.9375 3.15625 -2.15625 C 3.5625 -1.382812 4.160156 -1 4.953125 -1 C 5.742188 -1 6.335938 -1.382812 6.734375 -2.15625 C 7.128906 -2.9375 7.328125 -4.101562 7.328125 -5.65625 C 7.328125 -7.21875 7.128906 -8.382812 6.734375 -9.15625 C 6.335938 -9.9375 5.742188 -10.328125 4.953125 -10.328125 Z M 4.953125 -11.546875 C 6.222656 -11.546875 7.191406 -11.039062 7.859375 -10.03125 C 8.535156 -9.03125 8.875 -7.570312 8.875 -5.65625 C 8.875 -3.75 8.535156 -2.289062 7.859375 -1.28125 C 7.191406 -0.28125 6.222656 0.21875 4.953125 0.21875 C 3.679688 0.21875 2.707031 -0.28125 2.03125 -1.28125 C 1.363281 -2.289062 1.03125 -3.75 1.03125 -5.65625 C 1.03125 -7.570312 1.363281 -9.03125 2.03125 -10.03125 C 2.707031 -11.039062 3.679688 -11.546875 4.953125 -11.546875 Z "/>
</symbol>
<symbol overflow="visible" id="glyph0-5">
<path style="stroke:none;" d="M 3.0625 -5.421875 L 3.0625 -1.265625 L 5.53125 -1.265625 C 6.351562 -1.265625 6.960938 -1.429688 7.359375 -1.765625 C 7.753906 -2.109375 7.953125 -2.632812 7.953125 -3.34375 C 7.953125 -4.050781 7.753906 -4.570312 7.359375 -4.90625 C 6.960938 -5.25 6.351562 -5.421875 5.53125 -5.421875 Z M 3.0625 -10.078125 L 3.0625 -6.671875 L 5.328125 -6.671875 C 6.078125 -6.671875 6.632812 -6.804688 7 -7.078125 C 7.375 -7.359375 7.5625 -7.789062 7.5625 -8.375 C 7.5625 -8.945312 7.375 -9.375 7 -9.65625 C 6.632812 -9.9375 6.078125 -10.078125 5.328125 -10.078125 Z M 1.53125 -11.34375 L 5.453125 -11.34375 C 6.617188 -11.34375 7.519531 -11.097656 8.15625 -10.609375 C 8.789062 -10.128906 9.109375 -9.441406 9.109375 -8.546875 C 9.109375 -7.847656 8.941406 -7.289062 8.609375 -6.875 C 8.285156 -6.46875 7.8125 -6.210938 7.1875 -6.109375 C 7.945312 -5.953125 8.535156 -5.613281 8.953125 -5.09375 C 9.367188 -4.582031 9.578125 -3.941406 9.578125 -3.171875 C 9.578125 -2.160156 9.226562 -1.378906 8.53125 -0.828125 C 7.84375 -0.273438 6.863281 0 5.59375 0 L 1.53125 0 Z "/>
</symbol>
<symbol overflow="visible" id="glyph0-6">
<path style="stroke:none;" d=""/>
</symbol>
<symbol overflow="visible" id="glyph0-7">
<path style="stroke:none;" d="M 8.328125 -10.96875 L 8.328125 -9.46875 C 7.742188 -9.75 7.191406 -9.957031 6.671875 -10.09375 C 6.160156 -10.226562 5.664062 -10.296875 5.1875 -10.296875 C 4.34375 -10.296875 3.691406 -10.132812 3.234375 -9.8125 C 2.785156 -9.488281 2.5625 -9.03125 2.5625 -8.4375 C 2.5625 -7.9375 2.710938 -7.554688 3.015625 -7.296875 C 3.316406 -7.046875 3.890625 -6.835938 4.734375 -6.671875 L 5.65625 -6.484375 C 6.800781 -6.265625 7.644531 -5.878906 8.1875 -5.328125 C 8.738281 -4.785156 9.015625 -4.050781 9.015625 -3.125 C 9.015625 -2.03125 8.644531 -1.195312 7.90625 -0.625 C 7.164062 -0.0625 6.085938 0.21875 4.671875 0.21875 C 4.128906 0.21875 3.554688 0.15625 2.953125 0.03125 C 2.347656 -0.0820312 1.722656 -0.257812 1.078125 -0.5 L 1.078125 -2.078125 C 1.691406 -1.734375 2.296875 -1.472656 2.890625 -1.296875 C 3.492188 -1.117188 4.085938 -1.03125 4.671875 -1.03125 C 5.546875 -1.03125 6.21875 -1.203125 6.6875 -1.546875 C 7.164062 -1.890625 7.40625 -2.378906 7.40625 -3.015625 C 7.40625 -3.578125 7.234375 -4.015625 6.890625 -4.328125 C 6.554688 -4.640625 6 -4.875 5.21875 -5.03125 L 4.28125 -5.21875 C 3.132812 -5.445312 2.304688 -5.800781 1.796875 -6.28125 C 1.285156 -6.769531 1.03125 -7.445312 1.03125 -8.3125 C 1.03125 -9.3125 1.378906 -10.097656 2.078125 -10.671875 C 2.785156 -11.253906 3.757812 -11.546875 5 -11.546875 C 5.539062 -11.546875 6.085938 -11.5 6.640625 -11.40625 C 7.191406 -11.3125 7.753906 -11.164062 8.328125 -10.96875 Z "/>
</symbol>
<symbol overflow="visible" id="glyph0-8">
<path style="stroke:none;" d="M 1.46875 -8.515625 L 2.859375 -8.515625 L 2.859375 0 L 1.46875 0 Z M 1.46875 -11.828125 L 2.859375 -11.828125 L 2.859375 -10.046875 L 1.46875 -10.046875 Z "/>
</symbol>
<symbol overflow="visible" id="glyph0-9">
<path style="stroke:none;" d="M 8.09375 -6.875 C 8.4375 -7.5 8.851562 -7.960938 9.34375 -8.265625 C 9.832031 -8.566406 10.40625 -8.71875 11.0625 -8.71875 C 11.945312 -8.71875 12.628906 -8.40625 13.109375 -7.78125 C 13.597656 -7.164062 13.84375 -6.285156 13.84375 -5.140625 L 13.84375 0 L 12.4375 0 L 12.4375 -5.09375 C 12.4375 -5.90625 12.289062 -6.507812 12 -6.90625 C 11.707031 -7.300781 11.265625 -7.5 10.671875 -7.5 C 9.953125 -7.5 9.378906 -7.257812 8.953125 -6.78125 C 8.535156 -6.300781 8.328125 -5.644531 8.328125 -4.8125 L 8.328125 0 L 6.921875 0 L 6.921875 -5.09375 C 6.921875 -5.914062 6.773438 -6.519531 6.484375 -6.90625 C 6.203125 -7.300781 5.757812 -7.5 5.15625 -7.5 C 4.4375 -7.5 3.863281 -7.253906 3.4375 -6.765625 C 3.019531 -6.285156 2.8125 -5.632812 2.8125 -4.8125 L 2.8125 0 L 1.40625 0 L 1.40625 -8.515625 L 2.8125 -8.515625 L 2.8125 -7.1875 C 3.132812 -7.707031 3.519531 -8.09375 3.96875 -8.34375 C 4.414062 -8.59375 4.945312 -8.71875 5.5625 -8.71875 C 6.175781 -8.71875 6.695312 -8.5625 7.125 -8.25 C 7.5625 -7.9375 7.882812 -7.476562 8.09375 -6.875 Z "/>
</symbol>
<symbol overflow="visible" id="glyph0-10">
<path style="stroke:none;" d="M 1.328125 -3.359375 L 1.328125 -8.515625 L 2.71875 -8.515625 L 2.71875 -3.40625 C 2.71875 -2.601562 2.875 -2 3.1875 -1.59375 C 3.5 -1.195312 3.972656 -1 4.609375 -1 C 5.359375 -1 5.953125 -1.238281 6.390625 -1.71875 C 6.828125 -2.195312 7.046875 -2.851562 7.046875 -3.6875 L 7.046875 -8.515625 L 8.453125 -8.515625 L 8.453125 0 L 7.046875 0 L 7.046875 -1.3125 C 6.710938 -0.789062 6.320312 -0.40625 5.875 -0.15625 C 5.425781 0.09375 4.90625 0.21875 4.3125 0.21875 C 3.332031 0.21875 2.585938 -0.0820312 2.078125 -0.6875 C 1.578125 -1.300781 1.328125 -2.191406 1.328125 -3.359375 Z M 4.84375 -8.71875 Z "/>
</symbol>
<symbol overflow="visible" id="glyph0-11">
<path style="stroke:none;" d="M 1.46875 -11.828125 L 2.859375 -11.828125 L 2.859375 0 L 1.46875 0 Z "/>
</symbol>
<symbol overflow="visible" id="glyph0-12">
<path style="stroke:none;" d="M 5.328125 -4.28125 C 4.203125 -4.28125 3.421875 -4.148438 2.984375 -3.890625 C 2.546875 -3.628906 2.328125 -3.1875 2.328125 -2.5625 C 2.328125 -2.070312 2.488281 -1.679688 2.8125 -1.390625 C 3.144531 -1.097656 3.59375 -0.953125 4.15625 -0.953125 C 4.925781 -0.953125 5.546875 -1.222656 6.015625 -1.765625 C 6.484375 -2.316406 6.71875 -3.050781 6.71875 -3.96875 L 6.71875 -4.28125 Z M 8.125 -4.859375 L 8.125 0 L 6.71875 0 L 6.71875 -1.296875 C 6.40625 -0.773438 6.007812 -0.390625 5.53125 -0.140625 C 5.050781 0.0976562 4.46875 0.21875 3.78125 0.21875 C 2.914062 0.21875 2.222656 -0.0234375 1.703125 -0.515625 C 1.191406 -1.003906 0.9375 -1.660156 0.9375 -2.484375 C 0.9375 -3.429688 1.253906 -4.148438 1.890625 -4.640625 C 2.535156 -5.128906 3.492188 -5.375 4.765625 -5.375 L 6.71875 -5.375 L 6.71875 -5.515625 C 6.71875 -6.148438 6.503906 -6.644531 6.078125 -7 C 5.660156 -7.351562 5.070312 -7.53125 4.3125 -7.53125 C 3.820312 -7.53125 3.347656 -7.472656 2.890625 -7.359375 C 2.429688 -7.242188 1.988281 -7.066406 1.5625 -6.828125 L 1.5625 -8.125 C 2.070312 -8.320312 2.566406 -8.46875 3.046875 -8.5625 C 3.523438 -8.664062 3.992188 -8.71875 4.453125 -8.71875 C 5.679688 -8.71875 6.597656 -8.394531 7.203125 -7.75 C 7.816406 -7.113281 8.125 -6.148438 8.125 -4.859375 Z "/>
</symbol>
<symbol overflow="visible" id="glyph0-13">
<path style="stroke:none;" d="M 2.84375 -10.921875 L 2.84375 -8.515625 L 5.734375 -8.515625 L 5.734375 -7.421875 L 2.84375 -7.421875 L 2.84375 -2.796875 C 2.84375 -2.109375 2.9375 -1.664062 3.125 -1.46875 C 3.320312 -1.269531 3.710938 -1.171875 4.296875 -1.171875 L 5.734375 -1.171875 L 5.734375 0 L 4.296875 0 C 3.210938 0 2.460938 -0.195312 2.046875 -0.59375 C 1.640625 -1 1.4375 -1.734375 1.4375 -2.796875 L 1.4375 -7.421875 L 0.421875 -7.421875 L 0.421875 -8.515625 L 1.4375 -8.515625 L 1.4375 -10.921875 Z "/>
</symbol>
<symbol overflow="visible" id="glyph0-14">
<path style="stroke:none;" d="M 4.765625 -7.53125 C 4.015625 -7.53125 3.421875 -7.238281 2.984375 -6.65625 C 2.546875 -6.070312 2.328125 -5.269531 2.328125 -4.25 C 2.328125 -3.226562 2.539062 -2.425781 2.96875 -1.84375 C 3.40625 -1.257812 4.003906 -0.96875 4.765625 -0.96875 C 5.503906 -0.96875 6.09375 -1.257812 6.53125 -1.84375 C 6.96875 -2.4375 7.1875 -3.238281 7.1875 -4.25 C 7.1875 -5.257812 6.96875 -6.054688 6.53125 -6.640625 C 6.09375 -7.234375 5.503906 -7.53125 4.765625 -7.53125 Z M 4.765625 -8.71875 C 5.984375 -8.71875 6.9375 -8.320312 7.625 -7.53125 C 8.320312 -6.738281 8.671875 -5.644531 8.671875 -4.25 C 8.671875 -2.851562 8.320312 -1.757812 7.625 -0.96875 C 6.9375 -0.175781 5.984375 0.21875 4.765625 0.21875 C 3.546875 0.21875 2.585938 -0.175781 1.890625 -0.96875 C 1.203125 -1.757812 0.859375 -2.851562 0.859375 -4.25 C 0.859375 -5.644531 1.203125 -6.738281 1.890625 -7.53125 C 2.585938 -8.320312 3.546875 -8.71875 4.765625 -8.71875 Z "/>
</symbol>
<symbol overflow="visible" id="glyph0-15">
<path style="stroke:none;" d="M 6.390625 -7.203125 C 6.234375 -7.296875 6.0625 -7.363281 5.875 -7.40625 C 5.695312 -7.445312 5.5 -7.46875 5.28125 -7.46875 C 4.488281 -7.46875 3.878906 -7.207031 3.453125 -6.6875 C 3.023438 -6.175781 2.8125 -5.441406 2.8125 -4.484375 L 2.8125 0 L 1.40625 0 L 1.40625 -8.515625 L 2.8125 -8.515625 L 2.8125 -7.1875 C 3.113281 -7.707031 3.5 -8.09375 3.96875 -8.34375 C 4.4375 -8.59375 5.007812 -8.71875 5.6875 -8.71875 C 5.78125 -8.71875 5.882812 -8.707031 6 -8.6875 C 6.113281 -8.675781 6.242188 -8.660156 6.390625 -8.640625 Z "/>
</symbol>
</g>
</defs>
<g id="surface1">
<g style="fill:rgb(100%,100%,100%);fill-opacity:1;">
  <use xlink:href="#glyph0-1" x="30" y="34.439453"/>
  <use xlink:href="#glyph0-2" x="41" y="34.439453"/>
  <use xlink:href="#glyph0-3" x="51" y="34.439453"/>
  <use xlink:href="#glyph0-4" x="61" y="34.439453"/>
  <use xlink:href="#glyph0-5" x="71" y="34.439453"/>
  <use xlink:href="#glyph0-6" x="82" y="34.439453"/>
  <use xlink:href="#glyph0-7" x="87" y="34.439453"/>
  <use xlink:href="#glyph0-8" x="97" y="34.439453"/>
  <use xlink:href="#glyph0-9" x="101" y="34.439453"/>
  <use xlink:href="#glyph0-10" x="116" y="34.439453"/>
  <use xlink:href="#glyph0-11" x="126" y="34.439453"/>
  <use xlink:href="#glyph0-12" x="130" y="34.439453"/>
  <use xlink:href="#glyph0-13" x="140" y="34.439453"/>
  <use xlink:href="#glyph0-14" x="146" y="34.439453"/>
  <use xlink:href="#glyph0-15" x="156" y="34.439453"/>
</g>
</g>
</svg>
